<svg xmlns="http://www.w3.org/2000/svg" width="150" height="380" viewBox="0 0 150 380"><title>DoubleLasers</title><rect width="150" height="380" style="fill:#111217;stroke:#999;stroke-miterlimit:10"/><path d="M110.57,223.4a.6.6,0,0,1,.54.31L113,226.9l1.91-3.19a.59.59,0,0,1,.53-.31.6.6,0,0,1,.62.6v5.1a.48.48,0,0,1-1,0v-3.91l-1.61,2.66a.53.53,0,0,1-1,0l-1.61-2.66v3.91a.47.47,0,0,1-.49.46.45.45,0,0,1-.47-.46V224A.6.6,0,0,1,110.57,223.4Z" style="fill:#fff"/><path d="M120.64,228.12h-2.5l-.41,1.09a.48.48,0,0,1-.5.35.44.44,0,0,1-.46-.45.74.74,0,0,1,0-.24l1.91-5a.66.66,0,0,1,.68-.51.69.69,0,0,1,.69.51l1.89,5a.93.93,0,0,1,0,.23.45.45,0,0,1-.49.46.46.46,0,0,1-.47-.35Zm-2.25-.79h2l-1-2.68Z" style="fill:#fff"/><path d="M124.9,225.7l1.61-2.07a.5.5,0,0,1,.44-.23.55.55,0,0,1,.56.52.47.47,0,0,1-.12.31l-1.85,2.24,1.89,2.27a.44.44,0,0,1,.12.3.55.55,0,0,1-.56.52.53.53,0,0,1-.44-.22l-1.64-2.1-1.67,2.1a.56.56,0,0,1-.44.22.55.55,0,0,1-.57-.51.46.46,0,0,1,.13-.31l1.9-2.25-1.86-2.26a.48.48,0,0,1-.12-.31.55.55,0,0,1,.56-.52.49.49,0,0,1,.44.23Z" style="fill:#fff"/><path d="M36.11,27.83a4.59,4.59,0,0,1-3-.9,3.12,3.12,0,0,1-1.08-2.51A3.94,3.94,0,0,1,32.82,22a3.6,3.6,0,0,1,2.92-1.24,3.9,3.9,0,0,1,1,.14V18.39a1,1,0,0,1,2,0v8.37a1,1,0,0,1-1.13,1.07Zm.67-1.66V22.59a3.87,3.87,0,0,0-.92-.1,1.69,1.69,0,0,0-1.39.66,2,2,0,0,0-.37,1.24,1.66,1.66,0,0,0,.55,1.32,2.71,2.71,0,0,0,1.67.46Z" style="fill:#db3e25"/><path d="M44.06,20.78a3.61,3.61,0,1,1,0,7.21,3.61,3.61,0,1,1,0-7.21Zm0,5.53a1.75,1.75,0,0,0,1.76-1.92,1.77,1.77,0,1,0-3.53,0A1.75,1.75,0,0,0,44.06,26.31Z" style="fill:#db3e25"/><path d="M49.22,21.75a1,1,0,0,1,2,0v3a1.87,1.87,0,0,0,.2.94,1.3,1.3,0,0,0,1.24.63,1.26,1.26,0,0,0,1.22-.63,1.87,1.87,0,0,0,.2-.94v-3a1,1,0,0,1,2,0v3.09a3.09,3.09,0,0,1-.6,2.06A3.45,3.45,0,0,1,52.65,28a3.47,3.47,0,0,1-2.83-1.09,3.24,3.24,0,0,1-.6-2.06Z" style="fill:#db3e25"/><path d="M59.89,21a4.81,4.81,0,0,1,1.47-.23,3.26,3.26,0,0,1,2.42,1,3.72,3.72,0,0,1,.9,2.61,3.52,3.52,0,0,1-.84,2.39A4.38,4.38,0,0,1,60.47,28a7.82,7.82,0,0,1-1.68-.14,1.07,1.07,0,0,1-.89-1.12V18.39a1,1,0,0,1,2,0Zm0,5.3.76,0a2,2,0,0,0,1.6-.68,2,2,0,0,0,.39-1.27,2,2,0,0,0-.48-1.4,1.67,1.67,0,0,0-1.22-.52,3,3,0,0,0-1,.2Z" style="fill:#db3e25"/><path d="M66.22,18.39a1,1,0,0,1,1-1,1,1,0,0,1,1,1V27a1,1,0,0,1-2,0Z" style="fill:#db3e25"/><path d="M76.34,26.73c0,.41-.29.7-.86.92a5.06,5.06,0,0,1-2,.34,3.49,3.49,0,0,1-3.75-3.69,3.63,3.63,0,0,1,1-2.55,3.49,3.49,0,0,1,2.55-1,3.34,3.34,0,0,1,2.47.91,3.06,3.06,0,0,1,.86,2.17c0,.71-.36,1.12-1,1.12H71.87a1.65,1.65,0,0,0,1.78,1.42c1.06,0,1.45-.47,1.95-.47A.77.77,0,0,1,76.34,26.73Zm-1.65-3.06a1.35,1.35,0,0,0-1.37-1.32,1.43,1.43,0,0,0-1.47,1.32Z" style="fill:#db3e25"/><path d="M82,18.39a1,1,0,0,1,1-1,1,1,0,0,1,1,1V27a1,1,0,0,1-2,0Z" style="fill:#db3e25"/><path d="M89.49,23.56v-.12a1.31,1.31,0,0,0-.21-.82,1,1,0,0,0-.82-.3c-.8,0-1.31.47-1.9.47a.72.72,0,0,1-.73-.73c0-.46.38-.75.88-.95a5.87,5.87,0,0,1,2-.33,2.9,2.9,0,0,1,2.17.79,2.49,2.49,0,0,1,.61,1.82V27a1,1,0,0,1-1,1,1,1,0,0,1-.83-.43A3.51,3.51,0,0,1,87.8,28a2.13,2.13,0,0,1-2.3-2.13C85.5,24.09,87.48,23.71,89.49,23.56Zm0,2.66V24.9c-.91,0-2.08.15-2.08.89,0,.49.47.71,1,.71A2,2,0,0,0,89.49,26.22Z" style="fill:#db3e25"/><path d="M97.31,22.68c-.62,0-.9-.33-1.58-.33-.41,0-.71.14-.71.48s.3.47.65.61.93.32,1.42.56a1.87,1.87,0,0,1,1.13,1.77C98.22,27,97.15,28,95.4,28c-1.39,0-2.65-.31-2.65-1.24a.77.77,0,0,1,.77-.79c.61,0,.92.47,1.8.47.5,0,.8-.18.8-.54s-.26-.47-.63-.64-1-.35-1.47-.59a1.88,1.88,0,0,1-1.12-1.83c0-1.26,1-2.07,2.72-2.07,1.33,0,2.45.31,2.45,1.11A.75.75,0,0,1,97.31,22.68Z" style="fill:#db3e25"/><path d="M105.77,26.73c0,.41-.29.7-.86.92a5.06,5.06,0,0,1-2,.34A3.49,3.49,0,0,1,99.2,24.3a3.63,3.63,0,0,1,1-2.55,3.49,3.49,0,0,1,2.55-1,3.34,3.34,0,0,1,2.47.91,3.06,3.06,0,0,1,.86,2.17c0,.71-.37,1.12-1,1.12H101.3a1.65,1.65,0,0,0,1.78,1.42c1.06,0,1.45-.47,2-.47A.77.77,0,0,1,105.77,26.73Zm-1.65-3.06a1.35,1.35,0,0,0-1.37-1.32,1.43,1.43,0,0,0-1.47,1.32Z" style="fill:#db3e25"/><path d="M112.43,21.07a1,1,0,0,1,.59.9.87.87,0,0,1-.86.92c-.5,0-.7-.36-1.32-.36-1,0-1.31.95-1.31,1.91V27a1,1,0,0,1-1,1,1,1,0,0,1-1-1V21.75a1,1,0,0,1,1-1,1,1,0,0,1,1,.79,2.16,2.16,0,0,1,1.7-.79A2.54,2.54,0,0,1,112.43,21.07Z" style="fill:#db3e25"/><path d="M118.2,22.68c-.62,0-.91-.33-1.59-.33-.41,0-.71.14-.71.48s.3.47.65.61.94.32,1.42.56a1.85,1.85,0,0,1,1.13,1.77C119.1,27,118,28,116.28,28c-1.39,0-2.65-.31-2.65-1.24a.78.78,0,0,1,.78-.79c.6,0,.92.47,1.79.47.5,0,.8-.18.8-.54s-.25-.47-.63-.64-1-.35-1.47-.59a1.87,1.87,0,0,1-1.11-1.83c0-1.26,1-2.07,2.71-2.07,1.33,0,2.45.31,2.45,1.11A.75.75,0,0,1,118.2,22.68Z" style="fill:#db3e25"/><path d="M67.31,358.08a8.72,8.72,0,0,1,2.44-.4v-.17a1.45,1.45,0,0,0-.28-1,1.24,1.24,0,0,0-1-.35,2.81,2.81,0,0,0-1.08.2c-.31.12-.46.25-.6.25a.34.34,0,0,1-.34-.35c0-.23.28-.39.59-.52a3.86,3.86,0,0,1,1.53-.29,2.06,2.06,0,0,1,1.59.58,2.14,2.14,0,0,1,.46,1.48v3.18a.44.44,0,0,1-.45.42.43.43,0,0,1-.44-.39,3.17,3.17,0,0,1-1.59.39c-1,0-2-.51-2-1.6A1.45,1.45,0,0,1,67.31,358.08Zm2.44,2v-1.7a8.44,8.44,0,0,0-1.8.22c-.52.13-.91.4-.91.88,0,.67.7.95,1.37.95A2.94,2.94,0,0,0,69.75,360.05Z" style="fill:#fff"/><path d="M75.71,355.69c.22.15.34.29.34.5a.38.38,0,0,1-.39.41c-.33,0-.51-.35-1.1-.35a1.13,1.13,0,0,0-1,.48,2.86,2.86,0,0,0-.41,1.59v2.36a.44.44,0,0,1-.45.42.43.43,0,0,1-.44-.42v-4.82a.43.43,0,0,1,.44-.42.44.44,0,0,1,.45.42v.46a1.55,1.55,0,0,1,1.53-.88A2,2,0,0,1,75.71,355.69Z" style="fill:#fff"/><path d="M76.72,355.86a.44.44,0,0,1,.44-.43.44.44,0,0,1,.45.43v5.48a3.45,3.45,0,0,1-.47,1.91,1.18,1.18,0,0,1-.91.52c-.25,0-.45-.12-.45-.37s.32-.27.66-.75a2.78,2.78,0,0,0,.28-1.58Zm-.1-2.91a.53.53,0,1,1,.53.53A.53.53,0,0,1,76.62,353Z" style="fill:#fff"/><path d="M79.82,356.25a2.93,2.93,0,0,1,2.07-.81,2.89,2.89,0,0,1,2.07.81,2.89,2.89,0,0,1,0,4,2.86,2.86,0,0,1-2.07.82,2.89,2.89,0,0,1-2.07-.82,2.94,2.94,0,0,1,0-4Zm.6,3.49a2,2,0,0,0,1.47.64,2,2,0,0,0,1.48-.64,2.3,2.3,0,0,0,0-2.94,1.94,1.94,0,0,0-1.48-.64,2,2,0,0,0-1.47.64,2.27,2.27,0,0,0,0,2.94Z" style="fill:#fff"/><rect x="104" y="319" width="29" height="29" rx="3.76"/><rect x="16" y="319" width="29" height="29" rx="3.76"/><path d="M14.19,298.88a.49.49,0,0,1,.49-.48.48.48,0,0,1,.49.48v4.72h2.55a.44.44,0,0,1,0,.87h-3a.48.48,0,0,1-.49-.48Z" style="fill:#fff"/><path d="M22.25,303.12H19.74l-.41,1.09a.47.47,0,0,1-.49.35.44.44,0,0,1-.47-.45,1.14,1.14,0,0,1,.05-.24l1.91-5a.72.72,0,0,1,1.37,0l1.89,5a.93.93,0,0,1,0,.23.45.45,0,0,1-.49.46.46.46,0,0,1-.47-.35ZM20,302.33h2l-1-2.68Z" style="fill:#fff"/><path d="M27.68,299.63c-.41,0-.71-.34-1.45-.34s-1.12.22-1.12.71.33.59.82.76a8.19,8.19,0,0,1,1.72.65,1.48,1.48,0,0,1,.73,1.32c0,1.16-.94,1.83-2.22,1.83-.86,0-2.11-.33-2.11-.9a.47.47,0,0,1,.47-.47c.4,0,.72.5,1.63.5s1.16-.41,1.16-.88-.32-.64-.76-.81a12,12,0,0,1-1.65-.61,1.45,1.45,0,0,1-.83-1.36c0-1,.78-1.63,2.21-1.63.38,0,1.87.12,1.87.78A.45.45,0,0,1,27.68,299.63Z" style="fill:#fff"/><path d="M30.31,303.6h3.1a.44.44,0,0,1,0,.87H29.82a.48.48,0,0,1-.49-.48v-5a.48.48,0,0,1,.49-.48h3.59a.44.44,0,0,1,.43.44.43.43,0,0,1-.43.43h-3.1V301H33a.44.44,0,0,1,0,.87H30.31Z" style="fill:#fff"/><path d="M35.71,304.08a.49.49,0,0,1-.5.48.48.48,0,0,1-.49-.48V299a.48.48,0,0,1,.49-.49h2.1a2.53,2.53,0,0,1,1.48.37,1.81,1.81,0,0,1,.7,1.51,1.76,1.76,0,0,1-.68,1.45,1.62,1.62,0,0,1-.63.34l1.24,1.66a.47.47,0,0,1,.07.25.5.5,0,0,1-.5.5.53.53,0,0,1-.42-.23l-1.48-2.07H35.71Zm0-4.76v2.11H37.2a1.62,1.62,0,0,0,.85-.18,1.11,1.11,0,0,0,0-1.75,1.58,1.58,0,0,0-.86-.18Z" style="fill:#fff"/><path d="M46.47,303.62a.42.42,0,0,1,.41.43.41.41,0,0,1-.41.42H43.39a.42.42,0,0,1-.42-.42.43.43,0,0,1,.42-.43h1.09v-4.18l-.95.36a.4.4,0,0,1-.58-.39.43.43,0,0,1,.3-.41l1.47-.53a.8.8,0,0,1,.32-.07c.31,0,.43.22.43.48v4.74Z" style="fill:#fff"/><path d="M24.77,315.1A3.08,3.08,0,1,1,27.93,312,3.08,3.08,0,0,1,24.77,315.1Zm0-5.23A2.16,2.16,0,1,0,26.89,312,2.12,2.12,0,0,0,24.77,309.87Z" style="fill:#fff"/><path d="M32.7,313.7a1.73,1.73,0,0,0,.37-1.19v-3.09a.5.5,0,0,1,1,0v3.23a2.49,2.49,0,0,1-.56,1.68,2.58,2.58,0,0,1-2,.77,2.57,2.57,0,0,1-2-.77,2.49,2.49,0,0,1-.56-1.68v-3.23a.5.5,0,0,1,1,0v3.09a1.73,1.73,0,0,0,.37,1.19,1.75,1.75,0,0,0,2.41,0Z" style="fill:#fff"/><path d="M37.72,309.9v4.73a.49.49,0,0,1-.49.47.48.48,0,0,1-.49-.47V309.9H35.09a.42.42,0,0,1-.42-.43.43.43,0,0,1,.42-.44h4.26a.44.44,0,0,1,.44.44.44.44,0,0,1-.44.43Z" style="fill:#fff"/><path d="M102.19,298.88a.49.49,0,0,1,.49-.48.48.48,0,0,1,.49.48v4.72h2.55a.44.44,0,0,1,0,.87h-3a.48.48,0,0,1-.49-.48Z" style="fill:#fff"/><path d="M110.25,303.12h-2.51l-.41,1.09a.47.47,0,0,1-.49.35.44.44,0,0,1-.47-.45,1.14,1.14,0,0,1,0-.24l1.91-5a.72.72,0,0,1,1.37,0l1.89,5a.93.93,0,0,1,0,.23.45.45,0,0,1-.49.46.46.46,0,0,1-.47-.35Zm-2.25-.79h2l-1-2.68Z" style="fill:#fff"/><path d="M115.68,299.63c-.41,0-.71-.34-1.45-.34s-1.12.22-1.12.71.33.59.82.76a8.19,8.19,0,0,1,1.72.65,1.48,1.48,0,0,1,.73,1.32c0,1.16-.94,1.83-2.22,1.83-.86,0-2.11-.33-2.11-.9a.47.47,0,0,1,.47-.47c.4,0,.72.5,1.63.5s1.16-.41,1.16-.88-.32-.64-.76-.81a12,12,0,0,1-1.65-.61,1.45,1.45,0,0,1-.83-1.36c0-1,.78-1.63,2.21-1.63.38,0,1.87.12,1.87.78A.45.45,0,0,1,115.68,299.63Z" style="fill:#fff"/><path d="M118.31,303.6h3.1a.44.44,0,0,1,0,.87h-3.59a.48.48,0,0,1-.49-.48v-5a.48.48,0,0,1,.49-.48h3.59a.44.44,0,0,1,.43.44.43.43,0,0,1-.43.43h-3.1V301H121a.44.44,0,0,1,0,.87h-2.65Z" style="fill:#fff"/><path d="M123.71,304.08a.49.49,0,0,1-.5.48.48.48,0,0,1-.49-.48V299a.48.48,0,0,1,.49-.49h2.1a2.53,2.53,0,0,1,1.48.37,1.81,1.81,0,0,1,.7,1.51,1.76,1.76,0,0,1-.68,1.45,1.62,1.62,0,0,1-.63.34l1.24,1.66a.47.47,0,0,1,.07.25.5.5,0,0,1-.5.5.53.53,0,0,1-.42-.23l-1.48-2.07h-1.38Zm0-4.76v2.11h1.49a1.62,1.62,0,0,0,.85-.18,1.11,1.11,0,0,0,0-1.75,1.58,1.58,0,0,0-.86-.18Z" style="fill:#fff"/><path d="M134.38,303.62a.43.43,0,0,1,0,.85h-3.17a.41.41,0,0,1-.41-.45,2.15,2.15,0,0,1,.61-1.75,17.33,17.33,0,0,1,1.92-1.25,1,1,0,0,0,.45-.86.88.88,0,0,0-.25-.64,1.12,1.12,0,0,0-.8-.3,1.62,1.62,0,0,0-.79.2c-.29.15-.44.31-.64.31a.4.4,0,0,1-.42-.43c0-.27.34-.51.66-.65a3,3,0,0,1,1.27-.25,2,2,0,0,1,1.46.6,1.66,1.66,0,0,1,.43,1.14,1.74,1.74,0,0,1-.68,1.41c-.65.55-1.29.7-1.83,1.19a1,1,0,0,0-.35.88Z" style="fill:#fff"/><path d="M112.77,315.1a3.08,3.08,0,1,1,3.16-3.07A3.08,3.08,0,0,1,112.77,315.1Zm0-5.23a2.16,2.16,0,1,0,2.12,2.16A2.12,2.12,0,0,0,112.77,309.87Z" style="fill:#fff"/><path d="M120.7,313.7a1.73,1.73,0,0,0,.37-1.19v-3.09a.5.5,0,0,1,1,0v3.23a2.49,2.49,0,0,1-.56,1.68,3,3,0,0,1-4,0,2.49,2.49,0,0,1-.56-1.68v-3.23a.5.5,0,0,1,1,0v3.09a1.73,1.73,0,0,0,.37,1.19,1.75,1.75,0,0,0,2.41,0Z" style="fill:#fff"/><path d="M125.72,309.9v4.73a.49.49,0,0,1-.49.47.48.48,0,0,1-.49-.47V309.9h-1.65a.42.42,0,0,1-.42-.43.43.43,0,0,1,.42-.44h4.26a.44.44,0,0,1,.44.44.44.44,0,0,1-.44.43Z" style="fill:#fff"/><rect x="60" y="319" width="29" height="29" rx="3.76"/><path d="M68.79,303.62a.42.42,0,0,1,.41.43.41.41,0,0,1-.41.42H65.71a.42.42,0,0,1-.42-.42.43.43,0,0,1,.42-.43H66.8v-4.18l-1,.36a.4.4,0,0,1-.58-.39.43.43,0,0,1,.29-.41l1.48-.53a.8.8,0,0,1,.32-.07.42.42,0,0,1,.43.48v4.74Z" style="fill:#fff"/><path d="M76.28,300.94a.43.43,0,0,1,.41.43.42.42,0,0,1-.41.42H74.92v1.35a.41.41,0,0,1-.42.41.41.41,0,0,1-.42-.41v-1.35H72.72a.42.42,0,0,1-.41-.42.43.43,0,0,1,.41-.43h1.36v-1.35a.41.41,0,0,1,.42-.41.41.41,0,0,1,.42.41v1.35Z" style="fill:#fff"/><path d="M83.46,303.62a.43.43,0,0,1,0,.85H80.29a.41.41,0,0,1-.41-.45,2.15,2.15,0,0,1,.61-1.75A18.31,18.31,0,0,1,82.41,301a1,1,0,0,0,.45-.86.88.88,0,0,0-.25-.64,1.12,1.12,0,0,0-.8-.3,1.62,1.62,0,0,0-.79.2c-.29.15-.44.31-.64.31a.4.4,0,0,1-.42-.43c0-.27.34-.51.66-.65a3,3,0,0,1,1.27-.25,2,2,0,0,1,1.46.6,1.66,1.66,0,0,1,.43,1.14,1.74,1.74,0,0,1-.68,1.41c-.65.55-1.29.7-1.83,1.19a1,1,0,0,0-.35.88Z" style="fill:#fff"/><path d="M68.77,315.1A3.08,3.08,0,1,1,71.93,312,3.08,3.08,0,0,1,68.77,315.1Zm0-5.23A2.16,2.16,0,1,0,70.89,312,2.12,2.12,0,0,0,68.77,309.87Z" style="fill:#fff"/><path d="M76.7,313.7a1.73,1.73,0,0,0,.37-1.19v-3.09a.5.5,0,0,1,1,0v3.23a2.49,2.49,0,0,1-.56,1.68,3,3,0,0,1-4,0,2.49,2.49,0,0,1-.56-1.68v-3.23a.5.5,0,0,1,1,0v3.09a1.73,1.73,0,0,0,.37,1.19,1.75,1.75,0,0,0,2.41,0Z" style="fill:#fff"/><path d="M81.72,309.9v4.73a.49.49,0,0,1-.49.47.48.48,0,0,1-.49-.47V309.9H79.09a.42.42,0,0,1-.42-.43.43.43,0,0,1,.42-.44h4.26a.44.44,0,0,1,.44.44.44.44,0,0,1-.44.43Z" style="fill:#fff"/><path d="M77,99.51a2.76,2.76,0,0,1-1.8.53H73.92a.37.37,0,0,1-.38-.36V95.79a.37.37,0,0,1,.38-.37h1.4a2.43,2.43,0,0,1,1.92.72A2.51,2.51,0,0,1,77,99.51Zm-2.73-.1h.87a2,2,0,0,0,1.3-.4A1.54,1.54,0,0,0,77,97.73a1.67,1.67,0,0,0-.39-1.16,1.82,1.82,0,0,0-1.41-.51H74.3Z" style="fill:#fff"/><path d="M78.57,95.73a.37.37,0,0,1,.38-.37.37.37,0,0,1,.38.37v4a.38.38,0,0,1-.38.36.36.36,0,0,1-.38-.36Z" style="fill:#fff"/><path d="M82.88,96.31c-.32,0-.55-.27-1.12-.27s-.87.17-.87.55.26.46.64.59a6.34,6.34,0,0,1,1.33.5,1.14,1.14,0,0,1,.56,1c0,.9-.73,1.41-1.71,1.41-.67,0-1.64-.25-1.64-.69a.37.37,0,0,1,.37-.37c.31,0,.56.39,1.26.39s.89-.31.89-.68-.24-.49-.58-.62a10.11,10.11,0,0,1-1.28-.47,1.14,1.14,0,0,1-.64-1c0-.75.6-1.26,1.71-1.26.29,0,1.44.09,1.44.6A.35.35,0,0,1,82.88,96.31Z" style="fill:#fff"/><path d="M87.53,96.32c-.28,0-.45-.27-1.13-.27a1.66,1.66,0,0,0-1.64,1.68,1.62,1.62,0,0,0,1.65,1.68c.65,0,.91-.27,1.16-.27a.35.35,0,0,1,.35.35c0,.5-1.15.62-1.51.62A2.32,2.32,0,0,1,84,97.73a2.39,2.39,0,0,1,2.44-2.37c.55,0,1.46.15,1.46.6A.34.34,0,0,1,87.53,96.32Z" style="fill:#fff"/><path d="M90.68,100.11a2.38,2.38,0,1,1,2.44-2.37A2.38,2.38,0,0,1,90.68,100.11Zm0-4a1.67,1.67,0,0,0,0,3.34,1.67,1.67,0,0,0,0-3.34Z" style="fill:#fff"/><path d="M98,99.7a.42.42,0,0,1-.44.41.49.49,0,0,1-.38-.19l-2.52-3.24v3.09a.35.35,0,0,1-.36.34.35.35,0,0,1-.37-.34v-4a.42.42,0,0,1,.43-.41.51.51,0,0,1,.38.2l2.53,3.23V95.71a.36.36,0,0,1,.36-.35.37.37,0,0,1,.37.35Z" style="fill:#fff"/><path d="M103,99.7a.41.41,0,0,1-.43.41.46.46,0,0,1-.38-.19l-2.53-3.24v3.09a.36.36,0,0,1-.72,0v-4a.41.41,0,0,1,.43-.41.48.48,0,0,1,.37.2l2.54,3.23V95.71a.35.35,0,0,1,.36-.35.36.36,0,0,1,.36.35Z" style="fill:#fff"/><path d="M104.73,99.37h2.4a.34.34,0,0,1,.33.34.33.33,0,0,1-.33.33h-2.78a.37.37,0,0,1-.38-.36V95.79a.37.37,0,0,1,.38-.37h2.78a.34.34,0,0,1,.33.34.33.33,0,0,1-.33.33h-2.4v1.3h2a.34.34,0,0,1,0,.67h-2Z" style="fill:#fff"/><path d="M111.35,96.32c-.28,0-.45-.27-1.13-.27a1.66,1.66,0,0,0-1.64,1.68,1.61,1.61,0,0,0,1.64,1.68c.66,0,.91-.27,1.17-.27a.35.35,0,0,1,.35.35c0,.5-1.15.62-1.52.62a2.31,2.31,0,0,1-2.43-2.38,2.38,2.38,0,0,1,2.44-2.37c.55,0,1.46.15,1.46.6A.34.34,0,0,1,111.35,96.32Z" style="fill:#fff"/><path d="M114.41,96.09v3.66a.38.38,0,0,1-.38.36.37.37,0,0,1-.38-.36V96.09h-1.27a.33.33,0,0,1-.33-.33.34.34,0,0,1,.33-.34h3.29a.34.34,0,0,1,.33.34.33.33,0,0,1-.33.33Z" style="fill:#fff"/><path d="M15.92,96.32c-.27,0-.45-.27-1.13-.27a1.66,1.66,0,0,0-1.64,1.68,1.62,1.62,0,0,0,1.65,1.68c.65,0,.91-.27,1.16-.27a.34.34,0,0,1,.35.35c0,.5-1.15.62-1.51.62a2.32,2.32,0,0,1-2.44-2.38,2.39,2.39,0,0,1,2.44-2.37c.55,0,1.46.15,1.46.6A.34.34,0,0,1,15.92,96.32Z" style="fill:#fff"/><path d="M19.07,100.11a2.38,2.38,0,1,1,2.44-2.37A2.39,2.39,0,0,1,19.07,100.11Zm0-4a1.67,1.67,0,0,0,0,3.34,1.67,1.67,0,0,0,0-3.34Z" style="fill:#fff"/><path d="M26.36,99.7a.42.42,0,0,1-.44.41.49.49,0,0,1-.38-.19L23,96.68v3.09a.35.35,0,0,1-.36.34.35.35,0,0,1-.37-.34v-4a.42.42,0,0,1,.43-.41.51.51,0,0,1,.38.2l2.53,3.23V95.71a.36.36,0,0,1,.36-.35.37.37,0,0,1,.37.35Z" style="fill:#fff"/><path d="M31.39,99.7a.41.41,0,0,1-.43.41.46.46,0,0,1-.38-.19l-2.53-3.24v3.09a.36.36,0,0,1-.72,0v-4a.42.42,0,0,1,.43-.41.48.48,0,0,1,.37.2l2.54,3.23V95.71a.35.35,0,0,1,.36-.35.36.36,0,0,1,.36.35Z" style="fill:#fff"/><path d="M33.12,99.37h2.4a.34.34,0,0,1,.33.34.33.33,0,0,1-.33.33H32.74a.37.37,0,0,1-.38-.36V95.79a.37.37,0,0,1,.38-.37h2.78a.34.34,0,0,1,.33.34.33.33,0,0,1-.33.33h-2.4v1.3h2.05a.34.34,0,0,1,0,.67H33.12Z" style="fill:#fff"/><path d="M39.74,96.32c-.28,0-.45-.27-1.13-.27A1.66,1.66,0,0,0,37,97.73a1.62,1.62,0,0,0,1.65,1.68c.65,0,.91-.27,1.16-.27a.35.35,0,0,1,.35.35c0,.5-1.15.62-1.51.62a2.31,2.31,0,0,1-2.44-2.38,2.38,2.38,0,0,1,2.44-2.37c.55,0,1.46.15,1.46.6A.34.34,0,0,1,39.74,96.32Z" style="fill:#fff"/><path d="M42.8,96.09v3.66a.38.38,0,0,1-.38.36.37.37,0,0,1-.38-.36V96.09H40.77a.33.33,0,0,1-.33-.33.34.34,0,0,1,.33-.34h3.29a.34.34,0,0,1,.33.34.33.33,0,0,1-.33.33Z" style="fill:#fff"/><path d="M22.68,223.4a.61.61,0,0,1,.54.31l1.89,3.19,1.9-3.19a.61.61,0,0,1,.54-.31.6.6,0,0,1,.62.6v5.1a.47.47,0,0,1-.49.46.45.45,0,0,1-.47-.46v-3.91l-1.61,2.66a.54.54,0,0,1-1,0L23,225.19v3.91a.48.48,0,0,1-.95,0V224A.59.59,0,0,1,22.68,223.4Z" style="fill:#fff"/><path d="M29.42,223.88a.5.5,0,0,1,1,0v5.2a.49.49,0,0,1-.5.48.48.48,0,0,1-.49-.48Z" style="fill:#fff"/><path d="M36.93,229a.55.55,0,0,1-.57.54.62.62,0,0,1-.49-.26l-3.27-4.19v4a.46.46,0,0,1-.46.45.47.47,0,0,1-.48-.45v-5.17a.55.55,0,0,1,.56-.54.65.65,0,0,1,.49.27L36,227.85v-4a.46.46,0,0,1,.46-.45.47.47,0,0,1,.48.45Z" style="fill:#fff"/><path d="M13.12,206.88a.49.49,0,0,1,.5-.48.48.48,0,0,1,.49.48v4.72h2.55a.44.44,0,0,1,0,.87h-3a.48.48,0,0,1-.5-.48Z" style="fill:#db3e25"/><path d="M21.18,211.12h-2.5l-.42,1.09a.46.46,0,0,1-.49.35.43.43,0,0,1-.46-.45.74.74,0,0,1,.05-.24l1.91-5a.66.66,0,0,1,.68-.51.69.69,0,0,1,.69.51l1.89,5a1.85,1.85,0,0,1,0,.23.45.45,0,0,1-.49.46.48.48,0,0,1-.48-.35Zm-2.25-.79h2l-1-2.68Z" style="fill:#db3e25"/><path d="M26.62,207.63c-.41,0-.71-.34-1.46-.34s-1.11.22-1.11.71.33.59.81.76a8.07,8.07,0,0,1,1.73.65,1.48,1.48,0,0,1,.73,1.32c0,1.16-.94,1.83-2.22,1.83-.86,0-2.12-.33-2.12-.9a.47.47,0,0,1,.48-.47c.39,0,.72.5,1.62.5s1.16-.41,1.16-.88-.31-.64-.75-.81a12.62,12.62,0,0,1-1.66-.61A1.46,1.46,0,0,1,23,208c0-1,.77-1.63,2.2-1.63.38,0,1.88.12,1.88.78A.46.46,0,0,1,26.62,207.63Z" style="fill:#db3e25"/><path d="M29.25,211.6h3.1a.44.44,0,0,1,0,.87H28.76a.48.48,0,0,1-.5-.48v-5a.48.48,0,0,1,.5-.48h3.59a.43.43,0,0,1,.42.44.42.42,0,0,1-.42.43h-3.1V209h2.64a.44.44,0,0,1,0,.87H29.25Z" style="fill:#db3e25"/><path d="M34.64,212.08a.49.49,0,0,1-1,0V207a.48.48,0,0,1,.49-.49h2.09a2.59,2.59,0,0,1,1.49.37,1.81,1.81,0,0,1,.69,1.51,1.75,1.75,0,0,1-.67,1.45,1.78,1.78,0,0,1-.63.34l1.23,1.66a.41.41,0,0,1,.08.25.5.5,0,0,1-.92.27L36,210.26H34.64Zm0-4.76v2.11h1.5a1.66,1.66,0,0,0,.85-.18,1,1,0,0,0,.44-.87,1,1,0,0,0-.42-.88,1.58,1.58,0,0,0-.86-.18Z" style="fill:#db3e25"/><path d="M45.32,211.62a.43.43,0,0,1,0,.85H42.15a.41.41,0,0,1-.42-.45,2.15,2.15,0,0,1,.62-1.75A17.33,17.33,0,0,1,44.27,209a1,1,0,0,0,.44-.86.91.91,0,0,0-.24-.64,1.14,1.14,0,0,0-.8-.3,1.62,1.62,0,0,0-.79.2c-.29.15-.44.31-.64.31a.41.41,0,0,1-.43-.43c0-.27.35-.51.67-.65a3,3,0,0,1,1.27-.25,2,2,0,0,1,1.46.6,1.66,1.66,0,0,1,.43,1.14,1.77,1.77,0,0,1-.68,1.41c-.65.55-1.29.7-1.84,1.19a1,1,0,0,0-.34.88Z" style="fill:#db3e25"/><path d="M52.6,207.63c-.42,0-.72-.34-1.46-.34S50,207.51,50,208s.33.59.82.76a8.19,8.19,0,0,1,1.72.65,1.48,1.48,0,0,1,.73,1.32c0,1.16-.94,1.83-2.21,1.83-.87,0-2.12-.33-2.12-.9a.47.47,0,0,1,.47-.47c.4,0,.72.5,1.63.5s1.16-.41,1.16-.88-.32-.64-.76-.81a12,12,0,0,1-1.65-.61A1.45,1.45,0,0,1,49,208c0-1,.78-1.63,2.21-1.63.38,0,1.87.12,1.87.78A.45.45,0,0,1,52.6,207.63Z" style="fill:#db3e25"/><path d="M55.22,211.6h3.11a.44.44,0,0,1,0,.87h-3.6a.48.48,0,0,1-.49-.48v-5a.48.48,0,0,1,.49-.48h3.6a.44.44,0,0,1,.42.44.42.42,0,0,1-.42.43H55.22V209h2.65a.44.44,0,0,1,0,.87H55.22Z" style="fill:#db3e25"/><path d="M62.28,207.35v4.73a.5.5,0,0,1-1,0v-4.73H59.65a.42.42,0,0,1-.42-.43.44.44,0,0,1,.42-.44h4.26a.44.44,0,0,1,.43.44.43.43,0,0,1-.43.43Z" style="fill:#db3e25"/><path d="M67.78,207.35v4.73a.5.5,0,0,1-1,0v-4.73H65.15a.42.42,0,0,1-.42-.43.44.44,0,0,1,.42-.44h4.26a.44.44,0,0,1,.43.44.43.43,0,0,1-.43.43Z" style="fill:#db3e25"/><path d="M70.47,206.88a.49.49,0,0,1,.49-.48.48.48,0,0,1,.49.48v5.2a.49.49,0,0,1-.49.48.48.48,0,0,1-.49-.48Z" style="fill:#db3e25"/><path d="M78,212a.54.54,0,0,1-.56.54.61.61,0,0,1-.49-.26l-3.27-4.19v4a.47.47,0,0,1-.94,0v-5.17a.54.54,0,0,1,.56-.54.63.63,0,0,1,.48.27L77,210.85v-4a.46.46,0,0,1,.47-.45.47.47,0,0,1,.47.45Z" style="fill:#db3e25"/><path d="M84.11,209.37a.42.42,0,0,1,.43.47v2.24a.45.45,0,0,1-.47.48.44.44,0,0,1-.47-.36,3.37,3.37,0,0,1-1.52.36A2.9,2.9,0,0,1,79,209.47a3.11,3.11,0,0,1,3.16-3.07c.72,0,1.89.18,1.89.79a.44.44,0,0,1-.46.45c-.34,0-.6-.35-1.44-.35A2.16,2.16,0,0,0,80,209.47a2.09,2.09,0,0,0,2.13,2.21,2.74,2.74,0,0,0,1.45-.41v-1H82.34a.44.44,0,0,1,0-.87Z" style="fill:#db3e25"/><path d="M89.13,207.63c-.41,0-.71-.34-1.46-.34s-1.11.22-1.11.71.33.59.81.76a8.07,8.07,0,0,1,1.73.65,1.48,1.48,0,0,1,.73,1.32c0,1.16-.94,1.83-2.22,1.83-.86,0-2.12-.33-2.12-.9a.47.47,0,0,1,.48-.47c.39,0,.72.5,1.62.5s1.16-.41,1.16-.88-.31-.64-.75-.81a12,12,0,0,1-1.65-.61,1.45,1.45,0,0,1-.83-1.36c0-1,.77-1.63,2.21-1.63.37,0,1.87.12,1.87.78A.45.45,0,0,1,89.13,207.63Z" style="fill:#db3e25"/><path d="M16.05,287.56a3.08,3.08,0,1,1,3.16-3.07A3.08,3.08,0,0,1,16.05,287.56Zm0-5.23a2.16,2.16,0,0,0,0,4.31,2.16,2.16,0,0,0,0-4.31Z" style="fill:#db3e25"/><path d="M24,286.16a1.81,1.81,0,0,0,.36-1.2v-3.08a.5.5,0,0,1,1,0v3.22a2.5,2.5,0,0,1-.55,1.68,2.6,2.6,0,0,1-2,.78,2.57,2.57,0,0,1-2-.78,2.45,2.45,0,0,1-.56-1.68v-3.22a.5.5,0,0,1,1,0V285a1.76,1.76,0,0,0,.37,1.2,1.52,1.52,0,0,0,1.2.47A1.56,1.56,0,0,0,24,286.16Z" style="fill:#db3e25"/><path d="M29,282.35v4.73a.49.49,0,0,1-.49.48.48.48,0,0,1-.49-.48v-4.73H26.38a.43.43,0,0,1-.43-.43.45.45,0,0,1,.43-.44h4.26a.44.44,0,0,1,.43.44.43.43,0,0,1-.43.43Z" style="fill:#db3e25"/><path d="M34.22,281.48a2.18,2.18,0,0,1,1.41.43,2,2,0,0,1,.72,1.6,2,2,0,0,1-.78,1.64,2.25,2.25,0,0,1-1.39.39H32.67v1.54a.49.49,0,0,1-1,0V282a.48.48,0,0,1,.49-.49Zm.69,1.08a1.48,1.48,0,0,0-.82-.22H32.67v2.34H34a1.48,1.48,0,0,0,.84-.2,1.23,1.23,0,0,0,0-1.92Z" style="fill:#db3e25"/><path d="M41,286.16a1.76,1.76,0,0,0,.37-1.2v-3.08a.49.49,0,0,1,1,0v3.22a2.45,2.45,0,0,1-.55,1.68,3,3,0,0,1-4,0,2.5,2.5,0,0,1-.55-1.68v-3.22a.49.49,0,0,1,.49-.48.48.48,0,0,1,.49.48V285a1.81,1.81,0,0,0,.37,1.2,1.55,1.55,0,0,0,1.21.47A1.53,1.53,0,0,0,41,286.16Z" style="fill:#db3e25"/><path d="M46.06,282.35v4.73a.5.5,0,0,1-1,0v-4.73H43.43a.42.42,0,0,1-.42-.43.44.44,0,0,1,.42-.44h4.26a.44.44,0,0,1,.43.44.43.43,0,0,1-.43.43Z" style="fill:#db3e25"/><path d="M59.57,224.63c-.42,0-.71-.34-1.46-.34S57,224.51,57,225s.34.59.82.76a8,8,0,0,1,1.72.65,1.46,1.46,0,0,1,.73,1.32c0,1.16-.94,1.83-2.21,1.83-.86,0-2.12-.33-2.12-.9a.47.47,0,0,1,.47-.47c.4,0,.72.5,1.63.5s1.16-.41,1.16-.88-.32-.64-.76-.81a12.52,12.52,0,0,1-1.65-.61A1.46,1.46,0,0,1,56,225c0-1,.77-1.63,2.2-1.63.38,0,1.87.12,1.87.78A.45.45,0,0,1,59.57,224.63Z" style="fill:#fff"/><path d="M61.83,223.4a.6.6,0,0,1,.53.31l1.89,3.19,1.91-3.19a.59.59,0,0,1,.53-.31.6.6,0,0,1,.62.6v5.1a.48.48,0,0,1-1,0v-3.91l-1.61,2.66a.53.53,0,0,1-1,0l-1.61-2.66v3.91a.47.47,0,0,1-.49.46.45.45,0,0,1-.47-.46V224A.6.6,0,0,1,61.83,223.4Z" style="fill:#fff"/><path d="M71.49,229.56a3.08,3.08,0,1,1,3.17-3.07A3.08,3.08,0,0,1,71.49,229.56Zm0-5.23a2.16,2.16,0,0,0,0,4.31,2.16,2.16,0,0,0,0-4.31Z" style="fill:#fff"/><path d="M78.59,229.56a3.08,3.08,0,1,1,3.17-3.07A3.08,3.08,0,0,1,78.59,229.56Zm0-5.23a2.16,2.16,0,0,0,0,4.31,2.16,2.16,0,0,0,0-4.31Z" style="fill:#fff"/><path d="M85,224.35v4.73a.49.49,0,0,1-.49.48.48.48,0,0,1-.49-.48v-4.73H82.33a.43.43,0,0,1-.42-.43.45.45,0,0,1,.42-.44H86.6a.45.45,0,0,1,.43.44.43.43,0,0,1-.43.43Z" style="fill:#fff"/><path d="M87.65,223.88a.49.49,0,0,1,.49-.48.48.48,0,0,1,.49.48V226h3.16v-2.14a.5.5,0,0,1,.49-.48.48.48,0,0,1,.49.48v5.2a.48.48,0,0,1-.49.48.49.49,0,0,1-.49-.48v-2.19H88.63v2.19a.49.49,0,0,1-1,0Z" style="fill:#fff"/><line x1="12" y1="202" x2="138" y2="202" style="fill:none;stroke:#db3e25;stroke-miterlimit:10"/><line x1="12" y1="276.5" x2="138" y2="276.5" style="fill:none;stroke:#db3e25;stroke-miterlimit:10"/><path d="M110.57,149.4a.6.6,0,0,1,.54.31L113,152.9l1.91-3.19a.59.59,0,0,1,.53-.31.6.6,0,0,1,.62.6v5.1a.48.48,0,0,1-1,0v-3.91l-1.61,2.66a.53.53,0,0,1-1,0l-1.61-2.66v3.91a.47.47,0,0,1-.49.46.45.45,0,0,1-.47-.46V150A.6.6,0,0,1,110.57,149.4Z" style="fill:#fff"/><path d="M120.64,154.12h-2.5l-.41,1.09a.48.48,0,0,1-.5.35.44.44,0,0,1-.46-.45.74.74,0,0,1,0-.24l1.91-5a.66.66,0,0,1,.68-.51.69.69,0,0,1,.69.51l1.89,5a.93.93,0,0,1,0,.23.45.45,0,0,1-.49.46.46.46,0,0,1-.47-.35Zm-2.25-.79h2l-1-2.68Z" style="fill:#fff"/><path d="M124.9,151.7l1.61-2.07a.5.5,0,0,1,.44-.23.55.55,0,0,1,.56.52.47.47,0,0,1-.12.31l-1.85,2.24,1.89,2.27a.44.44,0,0,1,.12.3.55.55,0,0,1-.56.52.53.53,0,0,1-.44-.22l-1.64-2.1-1.67,2.1a.56.56,0,0,1-.44.22.55.55,0,0,1-.57-.51.46.46,0,0,1,.13-.31l1.9-2.25-1.86-2.26a.48.48,0,0,1-.12-.31.55.55,0,0,1,.56-.52.49.49,0,0,1,.44.23Z" style="fill:#fff"/><path d="M22.68,149.4a.61.61,0,0,1,.54.31l1.89,3.19,1.9-3.19a.61.61,0,0,1,.54-.31.6.6,0,0,1,.62.6v5.1a.47.47,0,0,1-.49.46.45.45,0,0,1-.47-.46v-3.91l-1.61,2.66a.54.54,0,0,1-1,0L23,151.19v3.91a.48.48,0,0,1-.95,0V150A.59.59,0,0,1,22.68,149.4Z" style="fill:#fff"/><path d="M29.42,149.88a.5.5,0,0,1,1,0v5.2a.49.49,0,0,1-.5.48.48.48,0,0,1-.49-.48Z" style="fill:#fff"/><path d="M36.93,155a.55.55,0,0,1-.57.54.62.62,0,0,1-.49-.26l-3.27-4.19v4a.46.46,0,0,1-.46.45.47.47,0,0,1-.48-.45v-5.17a.55.55,0,0,1,.56-.54.65.65,0,0,1,.49.27L36,153.85v-4a.46.46,0,0,1,.46-.45.47.47,0,0,1,.48.45Z" style="fill:#fff"/><g style="opacity:0.32"><path d="M4.4,193.86a.32.32,0,0,1-.32-.33.33.33,0,0,1,.32-.33H6.07a.34.34,0,0,1,.32.33.32.32,0,0,1-.32.33Z" style="fill:#db3e25"/><path d="M10.29,194.81a.33.33,0,0,1,.32.33.32.32,0,0,1-.32.33H7.91a.32.32,0,0,1-.32-.33.33.33,0,0,1,.32-.33h.84v-3.23l-.74.28-.12,0a.31.31,0,0,1-.32-.33.32.32,0,0,1,.23-.31l1.14-.42a.62.62,0,0,1,.24-.05c.24,0,.33.17.33.37v3.66Z" style="fill:#db3e25"/><path d="M13.07,195.54c-1.13,0-1.74-.82-1.74-2.38s.61-2.38,1.74-2.38,1.73.81,1.73,2.38S14.2,195.54,13.07,195.54Zm.72-3.67a.79.79,0,0,0-.72-.39.8.8,0,0,0-.72.39,2.48,2.48,0,0,0-.27,1.29,2.54,2.54,0,0,0,.26,1.29.82.82,0,0,0,.73.39.8.8,0,0,0,.72-.39,3.33,3.33,0,0,0,0-2.58Z" style="fill:#db3e25"/><path d="M18.58,191a.39.39,0,0,1,.38-.26.37.37,0,0,1,.38.37.4.4,0,0,1,0,.15l-1.53,3.84a.57.57,0,0,1-.54.4.55.55,0,0,1-.54-.4l-1.51-3.84a.58.58,0,0,1,0-.14.38.38,0,0,1,.4-.38.37.37,0,0,1,.36.27l1.32,3.5Z" style="fill:#db3e25"/></g><g style="opacity:0.32"><path d="M44.8,192.75a.32.32,0,0,1,.32.32.32.32,0,0,1-.32.33h-1v1a.33.33,0,0,1-.65,0v-1h-1a.32.32,0,0,1-.32-.33.32.32,0,0,1,.32-.32h1V191.7a.33.33,0,0,1,.65,0v1.05Z" style="fill:#db3e25"/><path d="M48.68,194.81a.32.32,0,0,1,.32.33.32.32,0,0,1-.32.33H46.3a.32.32,0,0,1-.32-.33.33.33,0,0,1,.32-.33h.85v-3.23l-.74.28-.12,0a.31.31,0,0,1-.33-.33.32.32,0,0,1,.23-.31l1.14-.42a.73.73,0,0,1,.25-.05.33.33,0,0,1,.33.37v3.66Z" style="fill:#db3e25"/><path d="M51.46,195.54c-1.12,0-1.73-.82-1.73-2.38s.61-2.38,1.73-2.38,1.74.81,1.74,2.38S52.59,195.54,51.46,195.54Zm.72-3.67a.85.85,0,0,0-1.43,0,2.47,2.47,0,0,0-.28,1.29,2.53,2.53,0,0,0,.27,1.29.8.8,0,0,0,.72.39.79.79,0,0,0,.72-.39,3.33,3.33,0,0,0,0-2.58Z" style="fill:#db3e25"/><path d="M57,191a.39.39,0,0,1,.38-.26.37.37,0,0,1,.39.37.42.42,0,0,1,0,.15l-1.53,3.84a.57.57,0,0,1-.54.4.55.55,0,0,1-.54-.4l-1.51-3.84a.59.59,0,0,1,0-.14.38.38,0,0,1,.39-.38.39.39,0,0,1,.37.27l1.31,3.5Z" style="fill:#db3e25"/></g><g style="opacity:0.32"><path d="M34.54,162.54c-1.13,0-1.74-.82-1.74-2.38s.61-2.38,1.74-2.38,1.73.81,1.73,2.38S35.66,162.54,34.54,162.54Zm.72-3.67a.8.8,0,0,0-.72-.39.79.79,0,0,0-.72.39,2.48,2.48,0,0,0-.27,1.29,2.54,2.54,0,0,0,.26,1.29.87.87,0,0,0,1.45,0,3.45,3.45,0,0,0,0-2.58Z" style="fill:#db3e25"/><path d="M40,158a.4.4,0,0,1,.38-.26.37.37,0,0,1,.39.37.4.4,0,0,1,0,.15l-1.54,3.84a.57.57,0,0,1-.54.4.55.55,0,0,1-.54-.4l-1.51-3.84a.59.59,0,0,1,0-.14.39.39,0,0,1,.76-.11l1.31,3.5Z" style="fill:#db3e25"/></g><g style="opacity:0.32"><path d="M18.59,112a.38.38,0,0,1,.38-.26.37.37,0,0,1,.39.37.47.47,0,0,1,0,.16l-1.27,3.83a.56.56,0,0,1-1.08,0l-1-2.92-1,2.92a.53.53,0,0,1-.54.4.54.54,0,0,1-.54-.4l-1.29-3.84a.7.7,0,0,1,0-.14.38.38,0,0,1,.4-.38.37.37,0,0,1,.37.28l1.1,3.49,1.13-3.47a.39.39,0,0,1,.41-.3.39.39,0,0,1,.4.3l1.16,3.47Z" style="fill:#db3e25"/><path d="M22.23,115.43H20.29l-.32.84a.36.36,0,0,1-.38.27.34.34,0,0,1-.36-.35.58.58,0,0,1,0-.18l1.48-3.84a.52.52,0,0,1,.53-.39.54.54,0,0,1,.53.39L23.27,116a1,1,0,0,1,0,.17.35.35,0,0,1-.38.36.37.37,0,0,1-.37-.27Zm-1.74-.61H22l-.77-2.07Z" style="fill:#db3e25"/><path d="M24.6,116.17a.38.38,0,0,1-.76,0v-4a.38.38,0,0,1,.38-.38h1.62a2,2,0,0,1,1.15.29,1.39,1.39,0,0,1,.53,1.17,1.37,1.37,0,0,1-.52,1.12,1.42,1.42,0,0,1-.48.26l.95,1.28a.36.36,0,0,1,.06.2.38.38,0,0,1-.71.2l-1.14-1.6H24.6Zm0-3.68v1.63h1.16a1.28,1.28,0,0,0,.66-.14.75.75,0,0,0,.34-.67.75.75,0,0,0-.33-.68,1.28,1.28,0,0,0-.67-.14Z" style="fill:#db3e25"/><path d="M32.4,116.12a.42.42,0,0,1-.43.42.47.47,0,0,1-.38-.2l-2.53-3.24v3.09a.36.36,0,0,1-.72,0v-4a.42.42,0,0,1,.43-.42.46.46,0,0,1,.37.21l2.54,3.23v-3.09a.35.35,0,0,1,.36-.35.36.36,0,0,1,.36.35Z" style="fill:#db3e25"/><path d="M33.37,112.15a.38.38,0,0,1,.38-.37.37.37,0,0,1,.38.37v4a.38.38,0,0,1-.76,0Z" style="fill:#db3e25"/><path d="M39.17,116.12a.42.42,0,0,1-.43.42.47.47,0,0,1-.38-.2l-2.53-3.24v3.09a.36.36,0,0,1-.36.35.37.37,0,0,1-.37-.35v-4a.43.43,0,0,1,.44-.42.48.48,0,0,1,.37.21l2.53,3.23v-3.09a.37.37,0,0,1,.73,0Z" style="fill:#db3e25"/><path d="M43.91,114.07a.33.33,0,0,1,.34.37v1.73a.38.38,0,0,1-.74.09,2.62,2.62,0,0,1-1.17.28A2.24,2.24,0,0,1,40,114.15a2.4,2.4,0,0,1,2.44-2.37c.55,0,1.45.14,1.45.61a.34.34,0,0,1-.35.35c-.26,0-.46-.27-1.11-.27a1.66,1.66,0,0,0-1.65,1.68,1.61,1.61,0,0,0,1.65,1.71,2.09,2.09,0,0,0,1.12-.32v-.8h-1a.33.33,0,0,1-.32-.33.34.34,0,0,1,.32-.34Z" style="fill:#db3e25"/><path d="M45.5,114.17a.43.43,0,1,1,.42-.42A.42.42,0,0,1,45.5,114.17Zm0,2.37a.43.43,0,1,1,.42-.43A.43.43,0,0,1,45.5,116.54Z" style="fill:#db3e25"/><path d="M51.05,115.43H49.11l-.32.84a.36.36,0,0,1-.38.27.34.34,0,0,1-.36-.35.58.58,0,0,1,0-.18l1.48-3.84a.52.52,0,0,1,.53-.39.54.54,0,0,1,.53.39L52.09,116a1,1,0,0,1,0,.17.38.38,0,0,1-.74.09Zm-1.74-.61h1.56l-.78-2.07Z" style="fill:#db3e25"/><path d="M55.5,112a.39.39,0,0,1,.38-.26.37.37,0,0,1,.38.37.4.4,0,0,1,0,.15l-1.54,3.84a.55.55,0,0,1-.53.4.58.58,0,0,1-.55-.4l-1.5-3.84a.32.32,0,0,1,0-.14.39.39,0,0,1,.76-.11l1.32,3.5Z" style="fill:#db3e25"/><path d="M59,116.54a2.38,2.38,0,1,1,2.44-2.37A2.39,2.39,0,0,1,59,116.54Zm0-4a1.67,1.67,0,0,0,0,3.33,1.67,1.67,0,0,0,0-3.33Z" style="fill:#db3e25"/><path d="M62.2,112.15a.38.38,0,0,1,.38-.37.37.37,0,0,1,.38.37v4a.38.38,0,0,1-.38.37.38.38,0,0,1-.38-.37Z" style="fill:#db3e25"/><path d="M67.41,115.93a2.74,2.74,0,0,1-1.8.54h-1.3a.37.37,0,0,1-.38-.37v-3.89a.38.38,0,0,1,.38-.37h1.4a2.43,2.43,0,0,1,1.91.72,2.25,2.25,0,0,1,.55,1.59A2.17,2.17,0,0,1,67.41,115.93Zm-2.72-.1h.86a2,2,0,0,0,1.31-.39,1.59,1.59,0,0,0,.54-1.29A1.69,1.69,0,0,0,67,113a1.86,1.86,0,0,0-1.42-.51h-.9Z" style="fill:#db3e25"/><path d="M74.17,115.93a2.73,2.73,0,0,1-1.79.54H71.07a.37.37,0,0,1-.38-.37v-3.89a.38.38,0,0,1,.38-.37h1.4a2.43,2.43,0,0,1,1.91.72,2.25,2.25,0,0,1,.55,1.59A2.17,2.17,0,0,1,74.17,115.93Zm-2.72-.1h.86a2,2,0,0,0,1.31-.39,1.59,1.59,0,0,0,.54-1.29,1.69,1.69,0,0,0-.39-1.16,1.86,1.86,0,0,0-1.42-.51h-.9Z" style="fill:#db3e25"/><path d="M75.71,112.15a.38.38,0,0,1,.38-.37.37.37,0,0,1,.38.37v4a.38.38,0,0,1-.76,0Z" style="fill:#db3e25"/><path d="M78.21,116.17a.38.38,0,0,1-.38.37.38.38,0,0,1-.38-.37v-4a.38.38,0,0,1,.38-.38h1.61a2,2,0,0,1,1.15.29,1.39,1.39,0,0,1,.53,1.17,1.37,1.37,0,0,1-.52,1.12,1.33,1.33,0,0,1-.48.26l.95,1.28a.36.36,0,0,1,.06.2.39.39,0,0,1-.38.38.4.4,0,0,1-.33-.18l-1.14-1.6H78.21Zm0-3.68v1.63h1.15A1.28,1.28,0,0,0,80,114a.73.73,0,0,0,.34-.67.75.75,0,0,0-.33-.68,1.26,1.26,0,0,0-.66-.14Z" style="fill:#db3e25"/><path d="M82.7,115.8h2.4a.34.34,0,0,1,0,.67H82.32a.37.37,0,0,1-.38-.37v-3.89a.38.38,0,0,1,.38-.37H85.1a.33.33,0,0,1,.32.34.33.33,0,0,1-.32.34H82.7v1.29h2a.34.34,0,0,1,0,.68h-2Z" style="fill:#db3e25"/><path d="M89.32,112.74c-.28,0-.46-.26-1.14-.26a1.65,1.65,0,0,0-1.63,1.67,1.61,1.61,0,0,0,1.64,1.68c.65,0,.91-.26,1.16-.26a.34.34,0,0,1,.36.35c0,.49-1.15.62-1.52.62a2.32,2.32,0,0,1-2.44-2.39,2.39,2.39,0,0,1,2.45-2.37c.55,0,1.46.15,1.46.61A.34.34,0,0,1,89.32,112.74Z" style="fill:#db3e25"/><path d="M92.37,112.52v3.65a.38.38,0,0,1-.76,0v-3.65H90.34a.33.33,0,0,1-.32-.34.34.34,0,0,1,.32-.34h3.29a.34.34,0,0,1,.34.34.34.34,0,0,1-.34.34Z" style="fill:#db3e25"/><path d="M13.74,123.94h2.4a.34.34,0,0,1,.33.34.33.33,0,0,1-.33.33H13.36a.37.37,0,0,1-.38-.36v-3.89a.37.37,0,0,1,.38-.37h2.78a.34.34,0,0,1,.33.34.33.33,0,0,1-.33.33h-2.4V122h2a.34.34,0,0,1,0,.67h-2Z" style="fill:#db3e25"/><path d="M19.1,122.64v1.68a.38.38,0,0,1-.38.36.37.37,0,0,1-.38-.36v-1.69l-1.46-2.09a.46.46,0,0,1-.08-.25.37.37,0,0,1,.38-.36.36.36,0,0,1,.32.18l1.21,1.77L20,120.1a.38.38,0,0,1,.7.2.43.43,0,0,1-.08.24Z" style="fill:#db3e25"/><path d="M21.93,123.94h2.4a.33.33,0,0,1,.32.34.32.32,0,0,1-.32.33H21.55a.37.37,0,0,1-.38-.36v-3.89a.37.37,0,0,1,.38-.37h2.78a.33.33,0,0,1,.32.34.32.32,0,0,1-.32.33h-2.4V122h2a.34.34,0,0,1,0,.67h-2Z" style="fill:#db3e25"/><path d="M27.83,123.94h2.4a.34.34,0,0,1,.33.34.33.33,0,0,1-.33.33H27.45a.37.37,0,0,1-.38-.36v-3.89a.37.37,0,0,1,.38-.37h2.78a.34.34,0,0,1,.33.34.33.33,0,0,1-.33.33h-2.4V122h2.05a.34.34,0,0,1,0,.67H27.83Z" style="fill:#db3e25"/><path d="M32.91,121.7l1.24-1.59a.39.39,0,0,1,.34-.18.42.42,0,0,1,.44.4.38.38,0,0,1-.09.24l-1.43,1.73,1.46,1.75a.35.35,0,0,1,.09.23.42.42,0,0,1-.43.4.41.41,0,0,1-.34-.17l-1.27-1.62-1.29,1.62a.42.42,0,0,1-.34.17.43.43,0,0,1-.44-.39.37.37,0,0,1,.1-.24l1.47-1.74L31,120.57a.4.4,0,0,1-.09-.24.42.42,0,0,1,.43-.4.36.36,0,0,1,.34.18Z" style="fill:#db3e25"/><path d="M37.49,120a1.63,1.63,0,0,1,1.08.33,1.53,1.53,0,0,1,.56,1.24,1.57,1.57,0,0,1-.6,1.26,1.75,1.75,0,0,1-1.08.31H36.29v1.19a.38.38,0,0,1-.76,0v-4a.37.37,0,0,1,.38-.37Zm.53.84a1.06,1.06,0,0,0-.64-.17H36.29v1.8h1.05a1.16,1.16,0,0,0,.65-.15.88.88,0,0,0,.37-.75A.82.82,0,0,0,38,120.83Z" style="fill:#db3e25"/><path d="M42.11,124.68a2.38,2.38,0,1,1,2.44-2.37A2.38,2.38,0,0,1,42.11,124.68Zm0-4a1.67,1.67,0,1,0,1.64,1.67A1.64,1.64,0,0,0,42.11,120.64Z" style="fill:#db3e25"/><path d="M47.92,120.88c-.32,0-.55-.26-1.13-.26s-.86.17-.86.54.26.46.63.59a6,6,0,0,1,1.33.5,1.14,1.14,0,0,1,.57,1c0,.9-.73,1.41-1.71,1.41-.67,0-1.64-.25-1.64-.69a.37.37,0,0,1,.37-.37c.3,0,.55.39,1.25.39s.9-.31.9-.68-.25-.49-.59-.62a10,10,0,0,1-1.27-.47,1.14,1.14,0,0,1-.64-1c0-.75.6-1.26,1.7-1.26.29,0,1.45.09,1.45.6A.36.36,0,0,1,47.92,120.88Z" style="fill:#db3e25"/><path d="M52.09,123.6a1.37,1.37,0,0,0,.29-.92V120.3a.38.38,0,0,1,.76,0v2.49a1.85,1.85,0,0,1-.43,1.29,2.3,2.3,0,0,1-3.1,0,1.85,1.85,0,0,1-.43-1.29V120.3a.38.38,0,0,1,.76,0v2.38a1.37,1.37,0,0,0,.29.92,1.35,1.35,0,0,0,1.86,0Z" style="fill:#db3e25"/><path d="M54.86,124.32a.38.38,0,0,1-.38.36.37.37,0,0,1-.38-.36v-4a.37.37,0,0,1,.38-.37h1.61a2,2,0,0,1,1.15.29,1.38,1.38,0,0,1,.54,1.16,1.36,1.36,0,0,1-.53,1.12,1.33,1.33,0,0,1-.48.26l.95,1.29a.33.33,0,0,1,.06.19.38.38,0,0,1-.38.38.42.42,0,0,1-.33-.17l-1.14-1.6H54.86Zm0-3.69v1.63H56a1.26,1.26,0,0,0,.66-.13.73.73,0,0,0,.34-.67.75.75,0,0,0-.33-.68,1.15,1.15,0,0,0-.66-.15Z" style="fill:#db3e25"/><path d="M59.35,123.94h2.4a.33.33,0,0,1,.32.34.32.32,0,0,1-.32.33H59a.37.37,0,0,1-.38-.36v-3.89A.37.37,0,0,1,59,120h2.78a.33.33,0,0,1,.32.34.32.32,0,0,1-.32.33h-2.4V122h2a.34.34,0,0,1,0,.67h-2Z" style="fill:#db3e25"/><path d="M66.37,120.66v3.66a.38.38,0,0,1-.38.36.37.37,0,0,1-.38-.36v-3.66H64.34a.33.33,0,0,1-.33-.33.34.34,0,0,1,.33-.34h3.29a.34.34,0,0,1,.33.34.33.33,0,0,1-.33.33Z" style="fill:#db3e25"/><path d="M70.56,124.68A2.38,2.38,0,1,1,73,122.31,2.39,2.39,0,0,1,70.56,124.68Zm0-4a1.67,1.67,0,0,0,0,3.34,1.67,1.67,0,0,0,0-3.34Z" style="fill:#db3e25"/><path d="M75.52,120.3a.37.37,0,0,1,.38-.37.37.37,0,0,1,.38.37v3.64h2a.33.33,0,0,1,.32.34.32.32,0,0,1-.32.33H75.9a.37.37,0,0,1-.38-.36Z" style="fill:#db3e25"/><path d="M81.74,123.58H79.81l-.32.84a.36.36,0,0,1-.38.26.34.34,0,0,1-.36-.34.72.72,0,0,1,0-.19l1.47-3.83a.53.53,0,0,1,.53-.4.54.54,0,0,1,.53.4l1.46,3.83a.58.58,0,0,1,0,.18.34.34,0,0,1-.38.35.35.35,0,0,1-.37-.26ZM80,123h1.56l-.77-2.07Z" style="fill:#db3e25"/><path d="M85.94,120.88c-.32,0-.55-.26-1.12-.26s-.86.17-.86.54.25.46.63.59a6.34,6.34,0,0,1,1.33.5,1.14,1.14,0,0,1,.56,1c0,.9-.73,1.41-1.71,1.41-.67,0-1.64-.25-1.64-.69a.37.37,0,0,1,.37-.37c.31,0,.56.39,1.26.39s.89-.31.89-.68-.24-.49-.58-.62a10.11,10.11,0,0,1-1.28-.47,1.14,1.14,0,0,1-.64-1c0-.75.6-1.26,1.71-1.26.29,0,1.44.09,1.44.6A.35.35,0,0,1,85.94,120.88Z" style="fill:#db3e25"/><path d="M88,123.94h2.4a.34.34,0,0,1,.33.34.33.33,0,0,1-.33.33H87.59a.37.37,0,0,1-.38-.36v-3.89a.37.37,0,0,1,.38-.37h2.78a.34.34,0,0,1,.33.34.33.33,0,0,1-.33.33H88V122h2a.34.34,0,0,1,0,.67H88Z" style="fill:#db3e25"/><path d="M92.14,124.32a.38.38,0,0,1-.38.36.37.37,0,0,1-.38-.36v-4a.37.37,0,0,1,.38-.37h1.62a1.92,1.92,0,0,1,1.14.29,1.49,1.49,0,0,1,0,2.28,1.42,1.42,0,0,1-.48.26l1,1.29a.33.33,0,0,1,.06.19.39.39,0,0,1-.39.38.43.43,0,0,1-.33-.17l-1.14-1.6H92.14Zm0-3.69v1.63h1.15a1.24,1.24,0,0,0,.66-.13.73.73,0,0,0,.34-.67.76.76,0,0,0-.32-.68,1.21,1.21,0,0,0-.67-.15Z" style="fill:#db3e25"/><path d="M96.15,124.68a.43.43,0,1,1,0-.85.43.43,0,0,1,0,.85Z" style="fill:#db3e25"/></g><g style="opacity:0.32"><path d="M100.42,112.15a.38.38,0,0,1,.38-.37.37.37,0,0,1,.38.37v3.65h2a.34.34,0,0,1,0,.67H100.8a.37.37,0,0,1-.38-.37Z" style="fill:#db3e25"/><path d="M104.07,112.15a.38.38,0,0,1,.38-.37.37.37,0,0,1,.38.37v4a.38.38,0,0,1-.76,0Z" style="fill:#db3e25"/><path d="M108.39,112.73c-.32,0-.55-.26-1.13-.26s-.86.17-.86.54.26.46.63.59a6,6,0,0,1,1.33.51,1.12,1.12,0,0,1,.57,1c0,.9-.73,1.42-1.71,1.42-.67,0-1.64-.25-1.64-.7a.36.36,0,0,1,.37-.36c.3,0,.55.38,1.25.38s.9-.31.9-.67-.25-.49-.58-.63a9.57,9.57,0,0,1-1.28-.47,1.12,1.12,0,0,1-.64-1c0-.75.6-1.26,1.7-1.26.3,0,1.45.09,1.45.6A.35.35,0,0,1,108.39,112.73Z" style="fill:#db3e25"/><path d="M111.53,112.52v3.65a.38.38,0,0,1-.76,0v-3.65H109.5a.33.33,0,0,1-.32-.34.34.34,0,0,1,.32-.34h3.3a.34.34,0,0,1,.33.34.34.34,0,0,1-.33.34Z" style="fill:#db3e25"/><path d="M117.3,111.84a1.67,1.67,0,0,1,1.09.34,1.52,1.52,0,0,1,.56,1.23,1.56,1.56,0,0,1-.61,1.27,1.78,1.78,0,0,1-1.07.3h-1.16v1.19a.38.38,0,0,1-.38.37.38.38,0,0,1-.38-.37v-4a.38.38,0,0,1,.38-.38Zm.53.84a1.08,1.08,0,0,0-.63-.17h-1.09v1.81h1a1.16,1.16,0,0,0,.65-.16.95.95,0,0,0,0-1.48Z" style="fill:#db3e25"/><path d="M121.93,116.54a2.38,2.38,0,1,1,2.44-2.37A2.38,2.38,0,0,1,121.93,116.54Zm0-4a1.67,1.67,0,0,0,0,3.33,1.67,1.67,0,0,0,0-3.33Z" style="fill:#db3e25"/><path d="M125.91,116.17a.38.38,0,0,1-.38.37.38.38,0,0,1-.38-.37v-4a.38.38,0,0,1,.38-.38h1.61a1.94,1.94,0,0,1,1.15.29,1.4,1.4,0,0,1,.54,1.17,1.42,1.42,0,0,1-1,1.38l1,1.28a.31.31,0,0,1,.07.2.4.4,0,0,1-.39.38.4.4,0,0,1-.33-.18l-1.14-1.6h-1.07Zm0-3.68v1.63h1.15a1.26,1.26,0,0,0,.66-.14.73.73,0,0,0,.34-.67.76.76,0,0,0-.32-.68,1.3,1.3,0,0,0-.67-.14Z" style="fill:#db3e25"/><path d="M131.52,112.52v3.65a.38.38,0,0,1-.38.37.38.38,0,0,1-.38-.37v-3.65h-1.27a.34.34,0,0,1-.33-.34.34.34,0,0,1,.33-.34h3.29a.34.34,0,0,1,.33.34.34.34,0,0,1-.33.34Z" style="fill:#db3e25"/><path d="M136.18,112.73c-.32,0-.55-.26-1.13-.26s-.86.17-.86.54.26.46.63.59a6,6,0,0,1,1.33.51,1.12,1.12,0,0,1,.57,1c0,.9-.73,1.42-1.72,1.42-.66,0-1.63-.25-1.63-.7a.36.36,0,0,1,.36-.36c.31,0,.56.38,1.26.38s.9-.31.9-.67-.25-.49-.59-.63a10,10,0,0,1-1.27-.47,1.12,1.12,0,0,1-.64-1c0-.75.6-1.26,1.7-1.26.29,0,1.45.09,1.45.6A.35.35,0,0,1,136.18,112.73Z" style="fill:#db3e25"/><path d="M137.74,114.17a.43.43,0,1,1,0-.85.43.43,0,0,1,0,.85Zm0,2.37a.43.43,0,0,1,0-.86.43.43,0,0,1,0,.86Z" style="fill:#db3e25"/><path d="M108.4,120.28a.35.35,0,0,1,.69,0v4.06a.35.35,0,0,1-.35.34.34.34,0,0,1-.34-.34Z" style="fill:#db3e25"/><path d="M111.78,122.17c-.22,0-.42-.14-.74-.14s-.48.09-.48.3.14.27.32.35.48.16.69.26a.82.82,0,0,1,.55.79c0,.56-.46,1-1.2,1-.45,0-1.16-.1-1.16-.51a.28.28,0,0,1,.27-.28c.25,0,.36.25.84.25.31,0,.52-.11.52-.35s-.15-.3-.35-.39-.47-.16-.7-.27a.8.8,0,0,1-.51-.79c0-.54.42-.88,1.17-.88.55,0,1,.11,1,.43A.27.27,0,0,1,111.78,122.17Z" style="fill:#db3e25"/><path d="M116.11,120.14a.33.33,0,0,1,.34-.22.35.35,0,0,1,.35.33.4.4,0,0,1-.06.22l-2,4a.35.35,0,0,1-.34.23.36.36,0,0,1-.36-.34.46.46,0,0,1,.06-.23Z" style="fill:#db3e25"/><path d="M118.27,124.61a2,2,0,0,1-1.35-.44,1.37,1.37,0,0,1-.45-1.08,1.78,1.78,0,0,1,.33-1.06,1.54,1.54,0,0,1,1.28-.57,1.76,1.76,0,0,1,.58.09v-1.28a.35.35,0,0,1,.7,0v4a.36.36,0,0,1-.39.37Zm.39-.58v-1.89a1.85,1.85,0,0,0-.54-.08.87.87,0,0,0-.74.37,1,1,0,0,0-.19.64.89.89,0,0,0,.26.68,1.25,1.25,0,0,0,.89.28Z" style="fill:#db3e25"/><path d="M123,124.15c0,.15-.11.25-.32.35a2.49,2.49,0,0,1-.93.18,1.62,1.62,0,0,1-1.22-.47,1.66,1.66,0,0,1-.43-1.18,1.59,1.59,0,0,1,.43-1.13,1.65,1.65,0,0,1,2.22,0,1.43,1.43,0,0,1,.38,1,.35.35,0,0,1-.36.38h-1.94a1,1,0,0,0,.23.57,1,1,0,0,0,.74.3,1.53,1.53,0,0,0,.61-.13.88.88,0,0,1,.33-.13A.27.27,0,0,1,123,124.15Zm-.55-1.36a.87.87,0,0,0-.2-.54.81.81,0,0,0-.58-.23.87.87,0,0,0-.63.24,1,1,0,0,0-.21.53Z" style="fill:#db3e25"/><path d="M124.93,123.92h0l.79-2.19a.35.35,0,0,1,.34-.27.32.32,0,0,1,.35.33,1.43,1.43,0,0,1-.08.29l-.88,2.17a.56.56,0,0,1-.56.43.52.52,0,0,1-.54-.43l-.86-2.17a.75.75,0,0,1-.07-.28.34.34,0,0,1,.38-.34.33.33,0,0,1,.32.3Z" style="fill:#db3e25"/><path d="M128.52,120.14a.33.33,0,0,1,.34-.22.35.35,0,0,1,.35.33.4.4,0,0,1-.06.22l-2.05,4a.35.35,0,0,1-.34.23.35.35,0,0,1-.35-.34.46.46,0,0,1,.06-.23Z" style="fill:#db3e25"/><path d="M131.34,122.26a.7.7,0,0,1-.28-.09,1.21,1.21,0,0,0-.47-.1,1,1,0,0,0-.75.32,1,1,0,0,0-.25.69,1.06,1.06,0,0,0,.27.73,1,1,0,0,0,.73.29,1.38,1.38,0,0,0,.49-.09c.14-.05.17-.09.28-.09a.29.29,0,0,1,.28.29c0,.17-.14.28-.38.36a1.89,1.89,0,0,1-.69.11,1.69,1.69,0,0,1-1.27-.48,1.56,1.56,0,0,1-.42-1.13,1.52,1.52,0,0,1,.35-1,1.71,1.71,0,0,1,1.36-.6,1.87,1.87,0,0,1,.74.15c.19.09.29.19.29.35A.3.3,0,0,1,131.34,122.26Z" style="fill:#db3e25"/><path d="M132.24,121.8a.35.35,0,0,1,.35-.34.35.35,0,0,1,.35.34v1.44a1,1,0,0,0,.1.51.86.86,0,0,0,1.35,0,1,1,0,0,0,.11-.51V121.8a.35.35,0,0,1,.69,0v1.5a1.47,1.47,0,0,1-.24.89,1.79,1.79,0,0,1-2.46,0,1.41,1.41,0,0,1-.25-.89Z" style="fill:#db3e25"/><path d="M137.32,121l.3.35a2.3,2.3,0,0,1,.17.2.22.22,0,0,1,0,.32.22.22,0,0,1-.32-.06c-.05-.07-.07-.11-.13-.21l-.26-.4-.25.4c-.06.1-.09.14-.14.21a.22.22,0,0,1-.32.06.22.22,0,0,1,0-.32l.17-.2.3-.35-.45-.11c-.1,0-.18,0-.25-.07a.2.2,0,0,1-.16-.27c0-.14.16-.17.29-.13l.25.09.42.17,0-.46a2.54,2.54,0,0,1,0-.26c0-.14.07-.24.21-.24a.21.21,0,0,1,.22.24c0,.07,0,.16,0,.26l0,.46.43-.17.24-.09a.21.21,0,0,1,.29.13.2.2,0,0,1-.15.27l-.26.07Z" style="fill:#db3e25"/></g><g style="opacity:0.32"><path d="M15.56,35.43H13.62l-.32.84a.36.36,0,0,1-.38.27.34.34,0,0,1-.36-.35.58.58,0,0,1,0-.18l1.48-3.84a.51.51,0,0,1,.52-.39.53.53,0,0,1,.53.39L16.59,36a.53.53,0,0,1,0,.17.35.35,0,0,1-.38.36.36.36,0,0,1-.37-.27Zm-1.74-.61h1.55l-.77-2.07Z" style="fill:#db3e25"/><path d="M19.38,31.78a.48.48,0,0,1,.42.24l1.46,2.47L22.73,32a.48.48,0,0,1,.89.23v3.93a.37.37,0,0,1-.74,0v-3l-1.24,2.06a.42.42,0,0,1-.38.23.41.41,0,0,1-.37-.23l-1.24-2.06v3a.36.36,0,0,1-.38.36.36.36,0,0,1-.36-.36V32.25A.46.46,0,0,1,19.38,31.78Z" style="fill:#db3e25"/><path d="M26.85,36.54a2.38,2.38,0,1,1,2.44-2.37A2.38,2.38,0,0,1,26.85,36.54Zm0-4a1.67,1.67,0,1,0,1.64,1.67A1.64,1.64,0,0,0,26.85,32.5Z" style="fill:#db3e25"/><path d="M33.56,35.93a2.77,2.77,0,0,1-1.8.54H30.45a.37.37,0,0,1-.38-.37V32.21a.38.38,0,0,1,.38-.37h1.4a2.46,2.46,0,0,1,1.92.72,2.25,2.25,0,0,1,.55,1.59A2.19,2.19,0,0,1,33.56,35.93Zm-2.73-.1h.87a2,2,0,0,0,1.3-.39,1.56,1.56,0,0,0,.54-1.29A1.69,1.69,0,0,0,33.15,33a1.85,1.85,0,0,0-1.41-.51h-.91Z" style="fill:#db3e25"/><path d="M38,35.46a1.38,1.38,0,0,0,.29-.93V32.15a.38.38,0,0,1,.76,0v2.49a1.89,1.89,0,0,1-.43,1.3,2.3,2.3,0,0,1-3.1,0,1.89,1.89,0,0,1-.43-1.3V32.15a.38.38,0,0,1,.76,0v2.38a1.43,1.43,0,0,0,.28.93,1.19,1.19,0,0,0,.94.36A1.15,1.15,0,0,0,38,35.46Z" style="fill:#db3e25"/><path d="M40,32.15a.38.38,0,0,1,.38-.37.37.37,0,0,1,.38.37V35.8h2a.34.34,0,0,1,0,.67H40.38A.37.37,0,0,1,40,36.1Z" style="fill:#db3e25"/><path d="M44.42,35.8h2.39a.34.34,0,0,1,0,.67H44a.37.37,0,0,1-.38-.37V32.21a.38.38,0,0,1,.38-.37h2.77a.34.34,0,0,1,.33.34.33.33,0,0,1-.33.34H44.42v1.29h2a.34.34,0,0,1,0,.68h-2Z" style="fill:#db3e25"/><path d="M50,31.78a.46.46,0,0,1,.41.24l1.46,2.47L53.38,32a.48.48,0,0,1,.42-.24.46.46,0,0,1,.47.47v3.93a.37.37,0,0,1-.74,0v-3l-1.24,2.06a.41.41,0,0,1-.37.23.42.42,0,0,1-.38-.23L50.3,33.16v3a.37.37,0,0,1-.74,0V32.25A.46.46,0,0,1,50,31.78Z" style="fill:#db3e25"/><path d="M57.82,35.43H55.88l-.32.84a.36.36,0,0,1-.38.27.34.34,0,0,1-.36-.35.58.58,0,0,1,0-.18l1.48-3.84a.51.51,0,0,1,.53-.39.55.55,0,0,1,.53.39L58.86,36a1,1,0,0,1,0,.17.35.35,0,0,1-.38.36.37.37,0,0,1-.37-.27Zm-1.74-.61h1.55l-.77-2.07Z" style="fill:#db3e25"/><path d="M62.91,35.93a2.74,2.74,0,0,1-1.8.54h-1.3a.37.37,0,0,1-.38-.37V32.21a.38.38,0,0,1,.38-.37h1.4a2.43,2.43,0,0,1,1.91.72,2.25,2.25,0,0,1,.55,1.59A2.17,2.17,0,0,1,62.91,35.93Zm-2.72-.1h.86a2,2,0,0,0,1.31-.39,1.59,1.59,0,0,0,.54-1.29A1.69,1.69,0,0,0,62.51,33a1.86,1.86,0,0,0-1.42-.51h-.9Z" style="fill:#db3e25"/><path d="M65.21,35.8h2.4a.34.34,0,0,1,0,.67H64.83a.37.37,0,0,1-.38-.37V32.21a.38.38,0,0,1,.38-.37h2.78a.34.34,0,0,1,.33.34.34.34,0,0,1-.33.34h-2.4v1.29h2.05a.34.34,0,0,1,0,.68H65.21Z" style="fill:#db3e25"/><path d="M73.31,31.84a.33.33,0,0,1,.32.34.33.33,0,0,1-.32.34H71.12v1.29H73a.34.34,0,0,1,0,.68H71.12v1.68a.38.38,0,0,1-.38.37.38.38,0,0,1-.38-.37v-4a.38.38,0,0,1,.38-.37Z" style="fill:#db3e25"/><path d="M76.38,36.54a2.38,2.38,0,1,1,2.44-2.37A2.38,2.38,0,0,1,76.38,36.54Zm0-4A1.67,1.67,0,1,0,78,34.17,1.64,1.64,0,0,0,76.38,32.5Z" style="fill:#db3e25"/><path d="M80.36,36.17a.38.38,0,0,1-.76,0v-4a.38.38,0,0,1,.38-.38H81.6a2,2,0,0,1,1.15.29,1.39,1.39,0,0,1,.53,1.17,1.37,1.37,0,0,1-.52,1.12,1.33,1.33,0,0,1-.48.26l1,1.28a.36.36,0,0,1,.06.2.38.38,0,0,1-.71.2l-1.14-1.6H80.36Zm0-3.68v1.63h1.16a1.28,1.28,0,0,0,.66-.14.73.73,0,0,0,.34-.67.75.75,0,0,0-.33-.68,1.26,1.26,0,0,0-.66-.14Z" style="fill:#db3e25"/><path d="M85.83,32.15a.38.38,0,0,1,.38-.37.37.37,0,0,1,.38.37v4a.38.38,0,0,1-.76,0Z" style="fill:#db3e25"/><path d="M90.51,31.84a.34.34,0,0,1,.33.34.33.33,0,0,1-.33.34H88.33v1.29h1.86a.34.34,0,0,1,0,.68H88.33v1.68a.38.38,0,0,1-.38.37.38.38,0,0,1-.38-.37v-4a.38.38,0,0,1,.38-.37Z" style="fill:#db3e25"/><path d="M93.54,32.52v3.65a.38.38,0,0,1-.38.37.38.38,0,0,1-.38-.37V32.52H91.51a.34.34,0,0,1-.33-.34.34.34,0,0,1,.33-.34H94.8a.34.34,0,0,1,.34.34.34.34,0,0,1-.34.34Z" style="fill:#db3e25"/><path d="M97.79,32.52v3.65a.38.38,0,0,1-.38.37.38.38,0,0,1-.38-.37V32.52H95.76a.34.34,0,0,1-.33-.34.34.34,0,0,1,.33-.34h3.29a.34.34,0,0,1,.33.34.33.33,0,0,1-.33.34Z" style="fill:#db3e25"/><path d="M102,32.52v3.65a.38.38,0,0,1-.38.37.38.38,0,0,1-.38-.37V32.52H100a.34.34,0,0,1-.33-.34.34.34,0,0,1,.33-.34h3.29a.34.34,0,0,1,.33.34.34.34,0,0,1-.33.34Z" style="fill:#db3e25"/><path d="M107.59,33.25c-.12.07-.17.13-.27.13a.17.17,0,0,1-.17-.18c0-.11.12-.18.24-.24a1.43,1.43,0,0,1,.71-.18,1.13,1.13,0,0,1,.73.26,1,1,0,0,1,.32.84V35c0,.16.07.23.18.23.38,0,.84-.45.84-1.43a1.75,1.75,0,0,0-1.94-1.73,2.17,2.17,0,0,0-2.22,2.1,2.08,2.08,0,0,0,2.24,2.11,4.27,4.27,0,0,0,1.44-.25A.88.88,0,0,1,110,36a.15.15,0,0,1,.15.15c0,.12-.13.18-.3.24a4.71,4.71,0,0,1-1.55.26,2.38,2.38,0,0,1-2.55-2.43,2.47,2.47,0,0,1,2.53-2.39,2.05,2.05,0,0,1,2.26,2c0,.93-.48,1.75-1.23,1.75a.38.38,0,0,1-.42-.33,1,1,0,0,1-.84.34,1.19,1.19,0,0,1-.63-.17.73.73,0,0,1-.34-.63c0-.39.27-.63.7-.76a5.06,5.06,0,0,1,1-.14.65.65,0,0,0-.68-.75A1.06,1.06,0,0,0,107.59,33.25Zm1.2.91a3.49,3.49,0,0,0-1,.16.51.51,0,0,0-.39.46.42.42,0,0,0,.18.35.74.74,0,0,0,.44.13.85.85,0,0,0,.78-.39Z" style="fill:#db3e25"/><path d="M113,32.15a.38.38,0,0,1,.38-.37.37.37,0,0,1,.38.37v1.66h2.44V32.15a.38.38,0,0,1,.38-.37.37.37,0,0,1,.38.37v4a.38.38,0,0,1-.38.37.38.38,0,0,1-.38-.37V34.48h-2.44v1.69a.38.38,0,0,1-.76,0Z" style="fill:#db3e25"/><path d="M119.7,33.86,121.36,36a.31.31,0,0,1,.07.21.39.39,0,0,1-.38.38.43.43,0,0,1-.33-.18l-1.54-2-.46.46v1.32a.38.38,0,0,1-.38.37.38.38,0,0,1-.38-.37v-4a.38.38,0,0,1,.38-.37.37.37,0,0,1,.38.37v1.73l1.91-2a.34.34,0,0,1,.27-.13.38.38,0,0,1,.37.37.33.33,0,0,1-.1.24Z" style="fill:#db3e25"/><path d="M124.81,35.46a1.38,1.38,0,0,0,.29-.93V32.15a.38.38,0,0,1,.76,0v2.49a1.94,1.94,0,0,1-.43,1.3,2,2,0,0,1-1.56.6,2,2,0,0,1-1.54-.6,1.89,1.89,0,0,1-.43-1.3V32.15a.38.38,0,0,1,.76,0v2.38a1.38,1.38,0,0,0,.28.93,1.39,1.39,0,0,0,1.87,0Z" style="fill:#db3e25"/></g><path d="M13.12,132.88a.49.49,0,0,1,.5-.48.48.48,0,0,1,.49.48v4.72h2.55a.44.44,0,0,1,0,.87h-3a.48.48,0,0,1-.5-.48Z" style="fill:#db3e25"/><path d="M21.18,137.12h-2.5l-.42,1.09a.46.46,0,0,1-.49.35.43.43,0,0,1-.46-.45.74.74,0,0,1,.05-.24l1.91-5a.66.66,0,0,1,.68-.51.69.69,0,0,1,.69.51l1.89,5a1.85,1.85,0,0,1,0,.23.45.45,0,0,1-.49.46.48.48,0,0,1-.48-.35Zm-2.25-.79h2l-1-2.68Z" style="fill:#db3e25"/><path d="M26.62,133.63c-.41,0-.71-.34-1.46-.34s-1.11.22-1.11.71.33.59.81.76a8.07,8.07,0,0,1,1.73.65,1.48,1.48,0,0,1,.73,1.32c0,1.16-.94,1.83-2.22,1.83-.86,0-2.12-.33-2.12-.9a.47.47,0,0,1,.48-.47c.39,0,.72.5,1.62.5s1.16-.41,1.16-.88-.31-.64-.75-.81a12.62,12.62,0,0,1-1.66-.61A1.46,1.46,0,0,1,23,134c0-1,.77-1.63,2.2-1.63.38,0,1.88.12,1.88.78A.46.46,0,0,1,26.62,133.63Z" style="fill:#db3e25"/><path d="M29.25,137.6h3.1a.44.44,0,0,1,0,.87H28.76a.48.48,0,0,1-.5-.48v-5a.48.48,0,0,1,.5-.48h3.59a.43.43,0,0,1,.42.44.42.42,0,0,1-.42.43h-3.1V135h2.64a.44.44,0,0,1,0,.87H29.25Z" style="fill:#db3e25"/><path d="M34.64,138.08a.49.49,0,0,1-1,0V133a.48.48,0,0,1,.49-.49h2.09a2.59,2.59,0,0,1,1.49.37,1.81,1.81,0,0,1,.69,1.51,1.75,1.75,0,0,1-.67,1.45,1.78,1.78,0,0,1-.63.34l1.23,1.66a.41.41,0,0,1,.08.25.5.5,0,0,1-.92.27L36,136.26H34.64Zm0-4.76v2.11h1.5a1.66,1.66,0,0,0,.85-.18,1,1,0,0,0,.44-.87,1,1,0,0,0-.42-.88,1.58,1.58,0,0,0-.86-.18Z" style="fill:#db3e25"/><path d="M45.41,137.62a.42.42,0,0,1,.41.43.41.41,0,0,1-.41.42H42.32a.41.41,0,0,1-.41-.42.42.42,0,0,1,.41-.43h1.1v-4.18l-1,.36a.34.34,0,0,1-.15,0,.41.41,0,0,1-.43-.43.44.44,0,0,1,.3-.41l1.48-.53a.76.76,0,0,1,.32-.07.42.42,0,0,1,.43.48v4.74Z" style="fill:#db3e25"/><path d="M52.6,133.63c-.42,0-.72-.34-1.46-.34S50,133.51,50,134s.33.59.82.76a8.19,8.19,0,0,1,1.72.65,1.48,1.48,0,0,1,.73,1.32c0,1.16-.94,1.83-2.21,1.83-.87,0-2.12-.33-2.12-.9a.47.47,0,0,1,.47-.47c.4,0,.72.5,1.63.5s1.16-.41,1.16-.88-.32-.64-.76-.81a12,12,0,0,1-1.65-.61A1.45,1.45,0,0,1,49,134c0-1,.78-1.63,2.21-1.63.38,0,1.87.12,1.87.78A.45.45,0,0,1,52.6,133.63Z" style="fill:#db3e25"/><path d="M55.22,137.6h3.11a.44.44,0,0,1,0,.87h-3.6a.48.48,0,0,1-.49-.48v-5a.48.48,0,0,1,.49-.48h3.6a.44.44,0,0,1,.42.44.42.42,0,0,1-.42.43H55.22V135h2.65a.44.44,0,0,1,0,.87H55.22Z" style="fill:#db3e25"/><path d="M62.28,133.35v4.73a.5.5,0,0,1-1,0v-4.73H59.65a.42.42,0,0,1-.42-.43.44.44,0,0,1,.42-.44h4.26a.44.44,0,0,1,.43.44.43.43,0,0,1-.43.43Z" style="fill:#db3e25"/><path d="M67.78,133.35v4.73a.5.5,0,0,1-1,0v-4.73H65.15a.42.42,0,0,1-.42-.43.44.44,0,0,1,.42-.44h4.26a.44.44,0,0,1,.43.44.43.43,0,0,1-.43.43Z" style="fill:#db3e25"/><path d="M70.47,132.88a.49.49,0,0,1,.49-.48.48.48,0,0,1,.49.48v5.2a.49.49,0,0,1-.49.48.48.48,0,0,1-.49-.48Z" style="fill:#db3e25"/><path d="M78,138a.54.54,0,0,1-.56.54.61.61,0,0,1-.49-.26l-3.27-4.19v4a.47.47,0,0,1-.94,0v-5.17a.54.54,0,0,1,.56-.54.63.63,0,0,1,.48.27L77,136.85v-4a.46.46,0,0,1,.47-.45.47.47,0,0,1,.47.45Z" style="fill:#db3e25"/><path d="M84.11,135.37a.42.42,0,0,1,.43.47v2.24a.45.45,0,0,1-.47.48.44.44,0,0,1-.47-.36,3.37,3.37,0,0,1-1.52.36A2.9,2.9,0,0,1,79,135.47a3.11,3.11,0,0,1,3.16-3.07c.72,0,1.89.18,1.89.79a.44.44,0,0,1-.46.45c-.34,0-.6-.35-1.44-.35A2.16,2.16,0,0,0,80,135.47a2.09,2.09,0,0,0,2.13,2.21,2.74,2.74,0,0,0,1.45-.41v-1H82.34a.44.44,0,0,1,0-.87Z" style="fill:#db3e25"/><path d="M89.13,133.63c-.41,0-.71-.34-1.46-.34s-1.11.22-1.11.71.33.59.81.76a8.07,8.07,0,0,1,1.73.65,1.48,1.48,0,0,1,.73,1.32c0,1.16-.94,1.83-2.22,1.83-.86,0-2.12-.33-2.12-.9a.47.47,0,0,1,.48-.47c.39,0,.72.5,1.62.5s1.16-.41,1.16-.88-.31-.64-.75-.81a12,12,0,0,1-1.65-.61,1.45,1.45,0,0,1-.83-1.36c0-1,.77-1.63,2.21-1.63.37,0,1.87.12,1.87.78A.45.45,0,0,1,89.13,133.63Z" style="fill:#db3e25"/><path d="M59.57,150.63c-.42,0-.71-.34-1.46-.34S57,150.51,57,151s.34.59.82.76a8,8,0,0,1,1.72.65,1.46,1.46,0,0,1,.73,1.32c0,1.16-.94,1.83-2.21,1.83-.86,0-2.12-.33-2.12-.9a.47.47,0,0,1,.47-.47c.4,0,.72.5,1.63.5s1.16-.41,1.16-.88-.32-.64-.76-.81a12.52,12.52,0,0,1-1.65-.61A1.46,1.46,0,0,1,56,151c0-1,.77-1.63,2.2-1.63.38,0,1.87.12,1.87.78A.45.45,0,0,1,59.57,150.63Z" style="fill:#fff"/><path d="M61.83,149.4a.6.6,0,0,1,.53.31l1.89,3.19,1.91-3.19a.59.59,0,0,1,.53-.31.6.6,0,0,1,.62.6v5.1a.48.48,0,0,1-1,0v-3.91l-1.61,2.66a.53.53,0,0,1-1,0l-1.61-2.66v3.91a.47.47,0,0,1-.49.46.45.45,0,0,1-.47-.46V150A.6.6,0,0,1,61.83,149.4Z" style="fill:#fff"/><path d="M71.49,155.56a3.08,3.08,0,1,1,3.17-3.07A3.08,3.08,0,0,1,71.49,155.56Zm0-5.23a2.16,2.16,0,0,0,0,4.31,2.16,2.16,0,0,0,0-4.31Z" style="fill:#fff"/><path d="M78.59,155.56a3.08,3.08,0,1,1,3.17-3.07A3.08,3.08,0,0,1,78.59,155.56Zm0-5.23a2.16,2.16,0,0,0,0,4.31,2.16,2.16,0,0,0,0-4.31Z" style="fill:#fff"/><path d="M85,150.35v4.73a.49.49,0,0,1-.49.48.48.48,0,0,1-.49-.48v-4.73H82.33a.43.43,0,0,1-.42-.43.45.45,0,0,1,.42-.44H86.6a.45.45,0,0,1,.43.44.43.43,0,0,1-.43.43Z" style="fill:#fff"/><path d="M87.65,149.88a.49.49,0,0,1,.49-.48.48.48,0,0,1,.49.48V152h3.16v-2.14a.5.5,0,0,1,.49-.48.48.48,0,0,1,.49.48v5.2a.48.48,0,0,1-.49.48.49.49,0,0,1-.49-.48v-2.19H88.63v2.19a.49.49,0,0,1-1,0Z" style="fill:#fff"/><line x1="12" y1="128" x2="138" y2="128" style="fill:none;stroke:#db3e25;stroke-miterlimit:10"/><line x1="30" y1="163" x2="30" y2="158" style="fill:none;stroke:#db3e25;stroke-miterlimit:10"/><line x1="20.5" y1="195.5" x2="30.5" y2="178.5" style="fill:none;stroke:#db3e25;stroke-miterlimit:10"/><line x1="40.5" y1="195.5" x2="30.5" y2="178.5" style="fill:none;stroke:#db3e25;stroke-miterlimit:10"/><g style="opacity:0.32"><path d="M93.9,193.86a.32.32,0,0,1-.32-.33.33.33,0,0,1,.32-.33h1.67a.34.34,0,0,1,.32.33.32.32,0,0,1-.32.33Z" style="fill:#db3e25"/><path d="M99.79,194.81a.33.33,0,0,1,.32.33.32.32,0,0,1-.32.33H97.41a.32.32,0,0,1-.32-.33.33.33,0,0,1,.32-.33h.84v-3.23l-.74.28-.12,0a.31.31,0,0,1-.32-.33.32.32,0,0,1,.23-.31l1.14-.42a.62.62,0,0,1,.24-.05c.24,0,.33.17.33.37v3.66Z" style="fill:#db3e25"/><path d="M102.57,195.54c-1.13,0-1.74-.82-1.74-2.38s.61-2.38,1.74-2.38,1.73.81,1.73,2.38S103.7,195.54,102.57,195.54Zm.72-3.67a.79.79,0,0,0-.72-.39.8.8,0,0,0-.72.39,2.48,2.48,0,0,0-.27,1.29,2.54,2.54,0,0,0,.26,1.29.82.82,0,0,0,.73.39.8.8,0,0,0,.72-.39,3.33,3.33,0,0,0,0-2.58Z" style="fill:#db3e25"/><path d="M108.08,191a.39.39,0,0,1,.38-.26.37.37,0,0,1,.38.37.4.4,0,0,1,0,.15l-1.53,3.84a.57.57,0,0,1-.54.4.55.55,0,0,1-.54-.4l-1.51-3.84a.58.58,0,0,1,0-.14.38.38,0,0,1,.4-.38.37.37,0,0,1,.36.27l1.32,3.5Z" style="fill:#db3e25"/></g><g style="opacity:0.32"><path d="M134.3,192.75a.32.32,0,0,1,.32.32.32.32,0,0,1-.32.33h-1.05v1a.33.33,0,0,1-.65,0v-1h-1a.32.32,0,0,1-.32-.33.32.32,0,0,1,.32-.32h1V191.7a.33.33,0,0,1,.65,0v1.05Z" style="fill:#db3e25"/><path d="M138.18,194.81a.32.32,0,0,1,.32.33.32.32,0,0,1-.32.33H135.8a.32.32,0,0,1-.32-.33.33.33,0,0,1,.32-.33h.85v-3.23l-.74.28-.12,0a.31.31,0,0,1-.33-.33.32.32,0,0,1,.23-.31l1.14-.42a.73.73,0,0,1,.25-.05.33.33,0,0,1,.33.37v3.66Z" style="fill:#db3e25"/><path d="M141,195.54c-1.12,0-1.73-.82-1.73-2.38s.61-2.38,1.73-2.38,1.74.81,1.74,2.38S142.09,195.54,141,195.54Zm.72-3.67a.85.85,0,0,0-1.43,0,2.47,2.47,0,0,0-.28,1.29,2.53,2.53,0,0,0,.27,1.29.8.8,0,0,0,.72.39.79.79,0,0,0,.72-.39,3.33,3.33,0,0,0,0-2.58Z" style="fill:#db3e25"/><path d="M146.47,191a.39.39,0,0,1,.38-.26.37.37,0,0,1,.39.37.42.42,0,0,1,0,.15l-1.53,3.84a.57.57,0,0,1-.54.4.55.55,0,0,1-.54-.4l-1.51-3.84a.59.59,0,0,1,0-.14.38.38,0,0,1,.39-.38.39.39,0,0,1,.37.27l1.31,3.5Z" style="fill:#db3e25"/></g><g style="opacity:0.32"><path d="M124,162.54c-1.13,0-1.74-.82-1.74-2.38s.61-2.38,1.74-2.38,1.73.81,1.73,2.38S125.16,162.54,124,162.54Zm.72-3.67a.8.8,0,0,0-.72-.39.79.79,0,0,0-.72.39,2.48,2.48,0,0,0-.27,1.29,2.54,2.54,0,0,0,.26,1.29.87.87,0,0,0,1.45,0,3.45,3.45,0,0,0,0-2.58Z" style="fill:#db3e25"/><path d="M129.54,158a.4.4,0,0,1,.38-.26.37.37,0,0,1,.39.37.4.4,0,0,1,0,.15l-1.54,3.84a.57.57,0,0,1-.54.4.55.55,0,0,1-.54-.4l-1.51-3.84a.59.59,0,0,1,0-.14.39.39,0,0,1,.76-.11l1.31,3.5Z" style="fill:#db3e25"/></g><line x1="119.5" y1="163" x2="119.5" y2="158" style="fill:none;stroke:#db3e25;stroke-miterlimit:10"/><line x1="110" y1="195.5" x2="120" y2="178.5" style="fill:none;stroke:#db3e25;stroke-miterlimit:10"/><line x1="130" y1="195.5" x2="120" y2="178.5" style="fill:none;stroke:#db3e25;stroke-miterlimit:10"/><g style="opacity:0.32"><path d="M93.9,267.86a.32.32,0,0,1-.32-.33.33.33,0,0,1,.32-.33h1.67a.34.34,0,0,1,.32.33.32.32,0,0,1-.32.33Z" style="fill:#db3e25"/><path d="M99.79,268.81a.33.33,0,0,1,.32.33.32.32,0,0,1-.32.33H97.41a.32.32,0,0,1-.32-.33.33.33,0,0,1,.32-.33h.84v-3.23l-.74.28-.12,0a.31.31,0,0,1-.32-.33.32.32,0,0,1,.23-.31l1.14-.42a.62.62,0,0,1,.24-.05c.24,0,.33.17.33.37v3.66Z" style="fill:#db3e25"/><path d="M102.57,269.54c-1.13,0-1.74-.82-1.74-2.38s.61-2.38,1.74-2.38,1.73.81,1.73,2.38S103.7,269.54,102.57,269.54Zm.72-3.67a.79.79,0,0,0-.72-.39.8.8,0,0,0-.72.39,2.48,2.48,0,0,0-.27,1.29,2.54,2.54,0,0,0,.26,1.29.82.82,0,0,0,.73.39.8.8,0,0,0,.72-.39,3.33,3.33,0,0,0,0-2.58Z" style="fill:#db3e25"/><path d="M108.08,265a.39.39,0,0,1,.38-.26.37.37,0,0,1,.38.37.4.4,0,0,1,0,.15l-1.53,3.84a.57.57,0,0,1-.54.4.55.55,0,0,1-.54-.4l-1.51-3.84a.58.58,0,0,1,0-.14.38.38,0,0,1,.4-.38.37.37,0,0,1,.36.27l1.32,3.5Z" style="fill:#db3e25"/></g><g style="opacity:0.32"><path d="M134.3,266.75a.32.32,0,0,1,.32.32.32.32,0,0,1-.32.33h-1.05v1a.33.33,0,0,1-.65,0v-1h-1a.32.32,0,0,1-.32-.33.32.32,0,0,1,.32-.32h1V265.7a.33.33,0,0,1,.65,0v1.05Z" style="fill:#db3e25"/><path d="M138.18,268.81a.32.32,0,0,1,.32.33.32.32,0,0,1-.32.33H135.8a.32.32,0,0,1-.32-.33.33.33,0,0,1,.32-.33h.85v-3.23l-.74.28-.12,0a.31.31,0,0,1-.33-.33.32.32,0,0,1,.23-.31l1.14-.42a.73.73,0,0,1,.25-.05.33.33,0,0,1,.33.37v3.66Z" style="fill:#db3e25"/><path d="M141,269.54c-1.12,0-1.73-.82-1.73-2.38s.61-2.38,1.73-2.38,1.74.81,1.74,2.38S142.09,269.54,141,269.54Zm.72-3.67a.85.85,0,0,0-1.43,0,2.47,2.47,0,0,0-.28,1.29,2.53,2.53,0,0,0,.27,1.29.8.8,0,0,0,.72.39.79.79,0,0,0,.72-.39,3.33,3.33,0,0,0,0-2.58Z" style="fill:#db3e25"/><path d="M146.47,265a.39.39,0,0,1,.38-.26.37.37,0,0,1,.39.37.42.42,0,0,1,0,.15l-1.53,3.84a.57.57,0,0,1-.54.4.55.55,0,0,1-.54-.4l-1.51-3.84a.59.59,0,0,1,0-.14.38.38,0,0,1,.39-.38.39.39,0,0,1,.37.27l1.31,3.5Z" style="fill:#db3e25"/></g><g style="opacity:0.32"><path d="M124,236.54c-1.13,0-1.74-.82-1.74-2.38s.61-2.38,1.74-2.38,1.73.81,1.73,2.38S125.16,236.54,124,236.54Zm.72-3.67a.8.8,0,0,0-.72-.39.79.79,0,0,0-.72.39,2.48,2.48,0,0,0-.27,1.29,2.54,2.54,0,0,0,.26,1.29.87.87,0,0,0,1.45,0,3.45,3.45,0,0,0,0-2.58Z" style="fill:#db3e25"/><path d="M129.54,232a.4.4,0,0,1,.38-.26.37.37,0,0,1,.39.37.4.4,0,0,1,0,.15l-1.54,3.84a.57.57,0,0,1-.54.4.55.55,0,0,1-.54-.4l-1.51-3.84a.59.59,0,0,1,0-.14.39.39,0,0,1,.76-.11l1.31,3.5Z" style="fill:#db3e25"/></g><line x1="119.5" y1="237" x2="119.5" y2="232" style="fill:none;stroke:#db3e25;stroke-miterlimit:10"/><line x1="110" y1="269.5" x2="120" y2="252.5" style="fill:none;stroke:#db3e25;stroke-miterlimit:10"/><line x1="130" y1="269.5" x2="120" y2="252.5" style="fill:none;stroke:#db3e25;stroke-miterlimit:10"/><g style="opacity:0.32"><path d="M4.9,267.86a.32.32,0,0,1-.32-.33.33.33,0,0,1,.32-.33H6.57a.34.34,0,0,1,.32.33.32.32,0,0,1-.32.33Z" style="fill:#db3e25"/><path d="M10.79,268.81a.33.33,0,0,1,.32.33.32.32,0,0,1-.32.33H8.41a.32.32,0,0,1-.32-.33.33.33,0,0,1,.32-.33h.84v-3.23l-.74.28-.12,0a.31.31,0,0,1-.32-.33.32.32,0,0,1,.23-.31l1.14-.42a.62.62,0,0,1,.24-.05c.24,0,.33.17.33.37v3.66Z" style="fill:#db3e25"/><path d="M13.57,269.54c-1.13,0-1.74-.82-1.74-2.38s.61-2.38,1.74-2.38,1.73.81,1.73,2.38S14.7,269.54,13.57,269.54Zm.72-3.67a.79.79,0,0,0-.72-.39.8.8,0,0,0-.72.39,2.48,2.48,0,0,0-.27,1.29,2.54,2.54,0,0,0,.26,1.29.82.82,0,0,0,.73.39.8.8,0,0,0,.72-.39,3.33,3.33,0,0,0,0-2.58Z" style="fill:#db3e25"/><path d="M19.08,265a.39.39,0,0,1,.38-.26.37.37,0,0,1,.38.37.4.4,0,0,1,0,.15l-1.53,3.84a.57.57,0,0,1-.54.4.55.55,0,0,1-.54-.4l-1.51-3.84a.58.58,0,0,1,0-.14.38.38,0,0,1,.4-.38.37.37,0,0,1,.36.27l1.32,3.5Z" style="fill:#db3e25"/></g><g style="opacity:0.32"><path d="M45.3,266.75a.32.32,0,0,1,.32.32.32.32,0,0,1-.32.33h-1v1a.33.33,0,0,1-.65,0v-1h-1a.32.32,0,0,1-.32-.33.32.32,0,0,1,.32-.32h1V265.7a.33.33,0,0,1,.65,0v1.05Z" style="fill:#db3e25"/><path d="M49.18,268.81a.32.32,0,0,1,.32.33.32.32,0,0,1-.32.33H46.8a.32.32,0,0,1-.32-.33.33.33,0,0,1,.32-.33h.85v-3.23l-.74.28-.12,0a.31.31,0,0,1-.33-.33.32.32,0,0,1,.23-.31l1.14-.42a.73.73,0,0,1,.25-.05.33.33,0,0,1,.33.37v3.66Z" style="fill:#db3e25"/><path d="M52,269.54c-1.12,0-1.73-.82-1.73-2.38s.61-2.38,1.73-2.38,1.74.81,1.74,2.38S53.09,269.54,52,269.54Zm.72-3.67a.85.85,0,0,0-1.43,0,2.47,2.47,0,0,0-.28,1.29,2.53,2.53,0,0,0,.27,1.29.8.8,0,0,0,.72.39.79.79,0,0,0,.72-.39,3.33,3.33,0,0,0,0-2.58Z" style="fill:#db3e25"/><path d="M57.47,265a.39.39,0,0,1,.38-.26.37.37,0,0,1,.39.37.42.42,0,0,1,0,.15l-1.53,3.84a.57.57,0,0,1-.54.4.55.55,0,0,1-.54-.4l-1.51-3.84a.59.59,0,0,1,0-.14.38.38,0,0,1,.39-.38.39.39,0,0,1,.37.27l1.31,3.5Z" style="fill:#db3e25"/></g><g style="opacity:0.32"><path d="M35,236.54c-1.13,0-1.74-.82-1.74-2.38s.61-2.38,1.74-2.38,1.73.81,1.73,2.38S36.16,236.54,35,236.54Zm.72-3.67a.8.8,0,0,0-.72-.39.79.79,0,0,0-.72.39,2.48,2.48,0,0,0-.27,1.29,2.54,2.54,0,0,0,.26,1.29.87.87,0,0,0,1.45,0,3.45,3.45,0,0,0,0-2.58Z" style="fill:#db3e25"/><path d="M40.54,232a.4.4,0,0,1,.38-.26.37.37,0,0,1,.39.37.4.4,0,0,1,0,.15l-1.54,3.84a.57.57,0,0,1-.54.4.55.55,0,0,1-.54-.4l-1.51-3.84a.59.59,0,0,1,0-.14.39.39,0,0,1,.76-.11l1.31,3.5Z" style="fill:#db3e25"/></g><line x1="30.5" y1="237" x2="30.5" y2="232" style="fill:none;stroke:#db3e25;stroke-miterlimit:10"/><line x1="21" y1="269.5" x2="31" y2="252.5" style="fill:none;stroke:#db3e25;stroke-miterlimit:10"/><line x1="41" y1="269.5" x2="31" y2="252.5" style="fill:none;stroke:#db3e25;stroke-miterlimit:10"/></svg>